<?xml version="1.0" encoding="UTF-8" standalone="no"?>
<!-- Creator: CorelDRAW -->

<svg
   xmlns:dc="http://purl.org/dc/elements/1.1/"
   xmlns:cc="http://creativecommons.org/ns#"
   xmlns:rdf="http://www.w3.org/1999/02/22-rdf-syntax-ns#"
   xmlns:svg="http://www.w3.org/2000/svg"
   xmlns="http://www.w3.org/2000/svg"
   xmlns:sodipodi="http://sodipodi.sourceforge.net/DTD/sodipodi-0.dtd"
   xmlns:inkscape="http://www.inkscape.org/namespaces/inkscape"
   xml:space="preserve"
   width="1021.6002"
   height="1033.4735"
   style="fill-rule:evenodd"
   viewBox="0 0 288.31823 412.50481"
   id="svg3503"
   version="1.1"
   inkscape:version="0.48.4 r9939"
   sodipodi:docname="dynamic_binaural_synthesis.svg"><metadata
     id="metadata3525"><rdf:RDF><cc:Work
         rdf:about=""><dc:format>image/svg+xml</dc:format><dc:type
           rdf:resource="http://purl.org/dc/dcmitype/StillImage" /><dc:title></dc:title></cc:Work></rdf:RDF></metadata><sodipodi:namedview
     pagecolor="#ffffff"
     bordercolor="#666666"
     borderopacity="1"
     objecttolerance="10"
     gridtolerance="10"
     guidetolerance="10"
     inkscape:pageopacity="0"
     inkscape:pageshadow="2"
     inkscape:window-width="1920"
     inkscape:window-height="1141"
     id="namedview3523"
     showgrid="false"
     fit-margin-top="0"
     fit-margin-left="0"
     fit-margin-right="0"
     fit-margin-bottom="0"
     inkscape:zoom="0.70710678"
     inkscape:cx="333.71807"
     inkscape:cy="601.6193"
     inkscape:window-x="0"
     inkscape:window-y="27"
     inkscape:window-maximized="1"
     inkscape:current-layer="svg3503" /><defs
     id="defs3505"><style
       type="text/css"
       id="style3507">
    .fil0 {fill:#96AEBE}
    .fil4 {fill:#5C3700}
    .fil3 {fill:#8C670B}
    .fil2 {fill:#948B7C}
    .fil1 {fill:#F8DEB0}
    .fil5 {fill:black}
    .fil6 {fill:black;fill-rule:nonzero}
   </style></defs><rect
     ry="0.87149829"
     y="-60.233486"
     x="130.78792"
     height="59.834343"
     width="101.04102"
     id="rect4084"
     style="fill:#ffffff;fill-opacity:1;stroke:#000000;stroke-width:0.79828817;stroke-miterlimit:4;stroke-opacity:1;stroke-dasharray:none"
     transform="scale(1,-1)" /><rect
     style="fill:#ffffff;fill-opacity:1;stroke:#000000;stroke-width:0.79828817;stroke-miterlimit:4;stroke-opacity:1;stroke-dasharray:none"
     id="rect4104"
     width="101.04102"
     height="59.834343"
     x="127.09322"
     y="-63.928238"
     ry="0.87149829"
     transform="scale(1,-1)" /><rect
     style="fill:#ffffff;fill-opacity:1;stroke:#000000;stroke-width:0.79828817;stroke-miterlimit:4;stroke-opacity:1;stroke-dasharray:none"
     id="rect4102"
     width="101.04102"
     height="59.834343"
     x="123.39845"
     y="-67.622978"
     ry="0.87149829"
     transform="scale(1,-1)" /><rect
     style="fill:#ffffff;fill-opacity:1;stroke:#000000;stroke-width:0.79828817;stroke-miterlimit:4;stroke-opacity:1;stroke-dasharray:none"
     id="rect4100"
     width="101.04102"
     height="59.834343"
     x="119.7037"
     y="-71.317726"
     ry="0.87149829"
     transform="scale(1,-1)" /><rect
     style="fill:#ffffff;fill-opacity:1;stroke:#000000;stroke-width:0.79828817;stroke-miterlimit:4;stroke-opacity:1;stroke-dasharray:none"
     id="rect4098"
     width="101.04102"
     height="59.834343"
     x="116.00895"
     y="-75.012474"
     ry="0.87149829"
     transform="scale(1,-1)" /><rect
     style="fill:#ffffff;fill-opacity:1;stroke:#000000;stroke-width:0.79828817;stroke-miterlimit:4;stroke-opacity:1;stroke-dasharray:none"
     id="rect4096"
     width="101.04102"
     height="59.834343"
     x="112.3142"
     y="-78.707214"
     ry="0.87149829"
     transform="scale(1,-1)" /><rect
     style="fill:#ffffff;fill-opacity:1;stroke:#000000;stroke-width:0.79828817;stroke-miterlimit:4;stroke-opacity:1;stroke-dasharray:none"
     id="rect4094"
     width="101.04102"
     height="59.834343"
     x="108.61947"
     y="-82.40197"
     ry="0.87149829"
     transform="scale(1,-1)" /><rect
     style="fill:#ffffff;fill-opacity:1;stroke:#000000;stroke-width:0.79828817;stroke-miterlimit:4;stroke-opacity:1;stroke-dasharray:none"
     id="rect4092"
     width="101.04102"
     height="59.834343"
     x="104.92474"
     y="-86.09671"
     ry="0.87149829"
     transform="scale(1,-1)" /><rect
     style="fill:#ffffff;fill-opacity:1;stroke:#000000;stroke-width:0.79828817;stroke-miterlimit:4;stroke-opacity:1;stroke-dasharray:none"
     id="rect4090"
     width="101.04102"
     height="59.834343"
     x="101.23"
     y="-89.791458"
     ry="0.87149829"
     transform="scale(1,-1)" /><rect
     style="fill:#ffffff;fill-opacity:1;stroke:#000000;stroke-width:0.79828817;stroke-miterlimit:4;stroke-opacity:1;stroke-dasharray:none"
     id="rect4088"
     width="101.04102"
     height="59.834343"
     x="97.535233"
     y="-93.486206"
     ry="0.87149829"
     transform="scale(1,-1)" /><rect
     style="fill:#ffffff;fill-opacity:1;stroke:#000000;stroke-width:0.79828817;stroke-miterlimit:4;stroke-opacity:1;stroke-dasharray:none"
     id="rect4086"
     width="101.04102"
     height="59.834343"
     x="93.840485"
     y="-97.180946"
     ry="0.87149829"
     transform="scale(1,-1)" /><path
     style="fill:#f0f0f0;fill-opacity:1;fill-rule:evenodd;stroke:#686868;stroke-width:0.99648166;stroke-opacity:1"
     inkscape:connector-curvature="0"
     d="m 195.08954,279.67359 c 0,-10.2718 -22.07952,-18.62353 -49.34302,-18.62353 -27.21546,0 -49.343008,8.35176 -49.343008,18.62353 0,10.31974 22.127548,18.67156 49.343008,18.67156 27.2635,0 49.34302,-8.35184 49.34302,-18.67156 z"
     class="fil0"
     id="path9792" /><g
     id="g4012"
     transform="matrix(-0.8660254,0.5,-0.5,-0.8660254,196.40569,295.69342)"><path
       id="path9794"
       class="fil1"
       d="m 35.429507,67.834536 c 0.527916,0 1.055976,0 1.583954,0 C 56.021105,67.498464 60.58096,46.090955 61.20494,38.267242 61.540945,34.331282 56.93303,22.331619 55.877065,20.171626 54.965057,18.251722 51.749124,14.36378 50.021201,13.115832 49.39722,12.683833 48.101222,12.203803 47.717214,11.915755 45.797239,10.42782 44.453269,8.7958473 43.781326,8.2198548 43.157348,7.595874 40.517381,5.8679224 40.517381,5.8679224 c 0,0 -0.575957,-1.4880062 -0.912032,-2.0159969 C 39.173344,3.1799116 38.309342,1.6440313 37.781407,1.1160406 37.301375,0.58812333 36.293471,0.44402809 35.477475,0.44402809 c -0.864004,0 -1.823942,0.14403276 -2.352003,0.67201251 -0.527915,0.5279187 -1.391913,2.0639294 -1.823942,2.7358849 -0.33607,0.5279187 -0.911885,2.0159969 -0.911885,2.0159969 0,0 -2.640007,1.7279218 -3.263945,2.3519324 -0.672007,0.5759504 -2.015995,2.2079652 -3.935953,3.6959002 -0.383967,0.288048 -1.67992,0.767935 -2.30393,1.200077 -1.727994,1.247963 -4.943922,5.135905 -5.855865,7.055794 -1.05598,2.159964 -5.6638822,14.159684 -5.3279452,18.095616 0.6239862,7.82377 5.1839082,29.231363 24.1916202,29.567294 0.527914,0 1.055975,0 1.535952,0 z"
       inkscape:connector-curvature="0"
       style="fill:#f8deb0;fill-rule:evenodd" /><path
       id="path9796"
       class="fil2"
       d="m 13.973972,53.962844 c 0.0479,-0.04805 0.0479,-0.144048 0.09594,-0.191993 0,0.09596 -0.04804,0.14397 -0.09594,0.191993 z"
       inkscape:connector-curvature="0"
       style="fill:#948b7c;fill-rule:evenodd"
       sodipodi:nodetypes="ccc" /><path
       id="path9798"
       class="fil2"
       d="m 16.565961,55.402791 c -0.144031,0.240007 -0.336074,0.480031 -0.527912,0.623988 0.143971,-0.240007 0.336076,-0.432004 0.527912,-0.623988 z"
       inkscape:connector-curvature="0"
       style="fill:#948b7c;fill-rule:evenodd"
       sodipodi:nodetypes="ccc" /><path
       id="path9800"
       class="fil5"
       d="m 33.36558,10.619918 c -0.288059,0 -9.263835,0.719899 -12.431759,3.167928 -1.200085,0.912031 -2.783976,3.023961 -3.215932,4.271908 1.77594,-1.967908 3.935888,-3.263945 5.51986,-4.079853 1.296,-0.672017 9.887788,-2.879995 10.127831,-2.975943 0.143971,-0.04804 0.240007,-0.432002 0,-0.383972 z"
       inkscape:connector-curvature="0"
       style="fill:#3c3c3c;fill-opacity:1;fill-rule:evenodd" /><path
       id="path9802"
       class="fil5"
       d="m 37.73345,10.523856 c 0.240008,0 9.263835,0.768079 12.383745,3.167983 1.200079,0.911884 2.831977,3.023887 3.263946,4.27191 C 51.6052,15.995767 49.397233,14.699801 47.813279,13.883824 46.56533,13.211802 37.92549,11.051847 37.685506,10.907879 37.54146,10.859826 37.4455,10.475877 37.733424,10.523908 z"
       inkscape:connector-curvature="0"
       style="fill:#3c3c3c;fill-opacity:1;fill-rule:evenodd" /><g
       style="fill-rule:evenodd"
       id="g9804"
       transform="matrix(39.389189,0,0,39.389189,29.729279,-94.862913)"><path
         sodipodi:nodetypes="ccccccccccccc"
         style="fill:#3c3c3c;fill-opacity:1;fill-rule:evenodd"
         inkscape:connector-curvature="0"
         d="m 0.76834387,3.1147944 c 0.0122062,0.024409 0.0219695,0.053702 0.0292939,0.089097 0.006102,0.030512 0.0146451,0.078111 0.0183055,0.1379161 -0.77838004,0.2933632 -0.75654084,0.9025785 -1.27664892,0.39423 -0.11716908,-0.29292 -0.043939,-0.5565513 0.0549231,-0.7457275 0.11106493,-0.2135878 0.23677786,0.2502034 0.23677786,0.2502034 0,0 0.11350648,-0.21969 0.3698141,-0.3014639 0.16598943,-0.053702 0.34296288,0.05004 0.35638849,0.056144 -0.1110668,-0.00855 -0.1110668,-0.019531 -0.26607066,-0.00244 0.18917808,0.019527 0.36004922,-0.00366 0.45036778,0.084214 0.007325,0.00732 -0.19161968,-0.00366 -0.18551736,0.00488 0.006102,0.00732 0.20748687,0.024408 0.21236858,0.032954 z"
         class="fil3"
         id="path9806" /><g
         id="g9808"><path
           id="path9810"
           style="fill:#3c3c3c;fill-opacity:1;fill-rule:evenodd"
           d="M 0.81230188,3.3163323 C 0.82326828,3.4420453 0.8069481,3.618342 0.7117463,3.7928757 0.58725365,4.0211097 0.40051636,4.1663501 0.16495849,4.1663501 c -0.20016395,0 -0.40642875,-0.031733 -0.58218122,-0.3454029 -0.0219695,-0.037837 -0.0402784,-0.075671 -0.0549231,-0.1135079 0.69016521,0.033162 0.91739386,-0.6460022 1.27785885,-0.4378832 z"
           inkscape:connector-curvature="0"
           sodipodi:nodetypes="csscccc" /></g></g><path
       style="fill:none;stroke:#000000;stroke-width:0.79547948;stroke-linecap:butt;stroke-linejoin:miter;stroke-miterlimit:4;stroke-opacity:1;stroke-dasharray:none"
       d="m 13.649028,22.7557 c -2.072673,4.48922 -3.8558432,8.856284 -4.4248626,13.880179 -0.64523,6.686989 1.0293426,13.413786 4.3480596,19.207663 2.935817,5.183405 7.154272,10.113938 12.992791,12.003724 4.19057,1.450488 8.752262,1.516606 13.120417,1.057228 3.363994,-0.494647 6.538081,-1.853049 9.266527,-3.871633 3.680193,-2.752532 6.721886,-6.351644 8.810791,-10.447922 2.384875,-4.065297 3.507711,-8.802525 3.825367,-13.477575 0.103074,-1.434433 0.312372,-2.667783 0.305844,-4.315909 -0.01195,-3.005658 -1.000522,-6.034568 -1.709785,-8.900874 -0.236975,-0.406172 -0.771614,-0.37658 -1.269901,-0.419642 -0.419379,-0.03624 -0.375343,-0.687153 -0.442543,-0.909645 -0.08144,-0.269658 0.618188,-0.0593 0.984273,-0.02423 C 59.028184,26.15908 58.004814,25.52715 57.920831,25.283115 57.851793,25.082511 57.69873,24.735383 57.432974,24.102822 56.546807,21.211131 55.195969,18.474919 53.177434,16.201116 51.80594,14.601549 50.319415,13.025724 48.327764,12.213141 45.913578,10.780103 44.362298,8.2337289 41.920369,6.8090982 40.983469,6.3172767 40.200463,5.6919662 39.9819,4.6017757 39.320521,3.2689559 38.616914,1.7513407 37.398438,0.87591313 35.625247,-0.08791765 33.041666,0.40405189 32.167363,2.363262 31.399536,3.4883014 30.830025,4.7878913 30.199194,5.94303 c -1.838155,1.2767353 -3.652158,2.5750104 -5.126127,4.278445 -1.051556,1.526703 -2.8716,1.967065 -4.325948,2.952126 -2.36386,1.82207 -5.10086,5.692958 -5.733363,6.716191 -0.740193,1.586571 -0.782458,1.784012 -1.002909,2.206259 -0.07815,0.149689 -0.18302,0.323212 -0.361819,0.659653 z"
       id="path9812"
       inkscape:connector-curvature="0"
       sodipodi:nodetypes="ccccccccscsscscccccccccccsc" /><path
       sodipodi:nodetypes="caaaaaacccccccaccccc"
       inkscape:connector-curvature="0"
       id="path9822"
       d="m 61.821319,41.489196 c 0.191435,0.428365 0.779571,1.369858 1.223039,2.020274 0.182567,0.267764 0.33413,0.574023 0.590302,0.772531 0.189024,0.146475 0.421885,0.267608 0.660725,0.279481 0.255807,0.01263 0.520024,-0.08671 0.733863,-0.227674 0.198448,-0.130822 0.340564,-0.338673 0.462615,-0.542634 0.193743,-0.323768 0.370313,-0.679289 0.411988,-1.054289 0.05751,-0.517413 -0.068,-1.22894 -0.235196,-1.543983 -0.275006,-0.570073 -0.534707,-0.897176 -0.824458,-1.342816 -0.290204,-0.557931 -0.225453,-0.597085 -0.317389,-1.078813 -0.122144,-1.053372 -1.94e-4,-1.822407 -0.01489,-2.886969 -0.0077,-0.329469 0.123434,-1.071201 0.140582,-1.519264 0.0552,-0.552462 0.100358,-1.214123 -0.0912,-1.605137 -0.244469,-0.345424 -0.395352,-0.398094 -0.72054,-0.638269 -0.284556,-0.256785 -0.671012,-0.281621 -1.003955,-0.205307 -0.568706,0.130347 -0.853604,1.352841 -1.390937,1.062572 0.215255,1.603532 0.07507,0.765424 0.312277,2.363627 0.116548,0.791661 0.139312,1.787659 0.235597,2.582551 0.02935,1.498391 -0.39235,2.103056 -0.330622,3.599275 z"
       style="fill:#f8deb0;fill-opacity:1;fill-rule:evenodd;stroke:#000000;stroke-width:0.87407541;stroke-linecap:butt;stroke-linejoin:miter;stroke-miterlimit:4;stroke-opacity:1;stroke-dasharray:none" /><path
       style="fill:#f8deb0;fill-opacity:1;fill-rule:evenodd;stroke:#000000;stroke-width:0.87407541;stroke-linecap:butt;stroke-linejoin:miter;stroke-miterlimit:4;stroke-opacity:1;stroke-dasharray:none"
       d="M 9.0697437,41.481889 C 8.8633528,41.903252 8.2424497,42.823466 7.7763704,43.457874 7.5844933,43.719047 7.4222469,44.019783 7.1592485,44.209153 6.9651861,44.348886 6.7282069,44.461749 6.4890968,44.46521 6.2330008,44.468877 5.9724472,44.360261 5.7637011,44.211853 5.5699783,44.074129 5.4352655,43.861405 5.3204683,43.653276 5.1382372,43.32289 4.9742876,42.961375 4.9458345,42.585141 4.9065825,42.066025 5.0570447,41.359357 5.2352175,41.050392 5.5301148,40.490348 5.8011633,40.172588 6.1064183,39.73742 6.4160753,39.190048 6.352742,39.148639 6.4615753,38.670444 6.62071,37.622023 6.5259003,36.849172 6.5780419,35.785788 6.5973689,35.456794 6.4923799,34.710904 6.4910079,34.262517 6.4552869,33.708454 6.4334469,33.045613 6.6386439,32.661584 6.8951175,32.324976 7.04776,32.277647 7.3811992,32.049066 7.6746147,31.802453 7.9593934,31.771668 8.251941,31.833498 c 0.6157894,0.130143 0.9452844,1.427757 1.4924991,1.156578 -0.2715497,1.594963 -0.1019608,0.762308 -0.3952609,2.351173 -0.1443302,0.787071 -0.2021315,1.781649 -0.326329,2.572662 -0.082063,1.496429 0.1612359,2.074858 0.046899,3.567978 z"
       id="path9824"
       inkscape:connector-curvature="0"
       sodipodi:nodetypes="caaaaaacccccccacccc" /><path
       sodipodi:nodetypes="sssasssas"
       inkscape:connector-curvature="0"
       id="path3195"
       d="m 8.8776163,27.531623 c 2.1011297,2.996421 0.068056,7.367394 0.1234133,11.298037 0.055357,3.930644 1.5006414,7.919885 -0.2184,11.150701 -1.1957586,2.247345 -3.5042978,3.175726 -5.6004903,2.943687 -2.1313695,-0.235934 -3.76144391,-2.07309 -4.9019881,-4.166066 -1.7310575,-3.176608 -1.7611761,-6.212566 -1.8833824,-10.07341 -0.1222064,-3.860846 0.16243,-7.299256 2.0544623,-10.382698 1.13093842,-1.843089 3.6412309,-3.460807 5.9271206,-3.449355 1.7454798,0.0087 3.2043905,0.832486 4.4992646,2.679104 z"
       style="fill:#5083b5;fill-opacity:1;stroke:#000000;stroke-width:0.79828817;stroke-linecap:butt;stroke-linejoin:miter;stroke-miterlimit:4;stroke-opacity:1;stroke-dasharray:none" /><path
       style="fill:#5083b5;fill-opacity:1;stroke:#000000;stroke-width:0.79828817;stroke-linecap:butt;stroke-linejoin:miter;stroke-miterlimit:4;stroke-opacity:1;stroke-dasharray:none"
       d="m 61.905045,27.531622 c -2.10113,2.996421 -0.06806,7.367394 -0.123413,11.298037 -0.05536,3.93064 -1.500642,7.91988 0.2184,11.1507 1.195758,2.24734 3.504297,3.17573 5.60049,2.94369 2.131369,-0.23594 3.761444,-2.07309 4.901988,-4.16607 1.731057,-3.17661 1.761176,-6.21256 1.883382,-10.07341 0.122207,-3.860845 -0.16243,-7.299255 -2.054462,-10.382697 -1.130938,-1.843088 -3.641231,-3.460807 -5.927121,-3.449354 -1.745479,0.0087 -3.20439,0.832485 -4.499264,2.679104 z"
       id="path3965"
       inkscape:connector-curvature="0"
       sodipodi:nodetypes="sssasssas" /><g
       transform="translate(0.03536723,-0.09702531)"
       id="g3971"><rect
         style="fill:#909090;fill-opacity:1;stroke:#000000;stroke-width:0.79828817;stroke-miterlimit:4;stroke-opacity:1;stroke-dasharray:none"
         id="rect3967"
         width="63.503433"
         height="6.4914622"
         x="3.6042466"
         y="35.75687"
         ry="2.1834178" /><rect
         style="fill:#909090;fill-opacity:1;stroke:#000000;stroke-width:0.79828817;stroke-miterlimit:4;stroke-opacity:1;stroke-dasharray:none"
         id="rect3969"
         width="13.406281"
         height="15.381943"
         x="28.652822"
         y="31.311628"
         ry="0.87149829" /></g></g><rect
     ry="0.87149829"
     y="146.40768"
     x="93.638611"
     height="59.834343"
     width="101.04102"
     id="rect3977"
     style="fill:none;stroke:#000000;stroke-width:0.79828817;stroke-miterlimit:4;stroke-opacity:1;stroke-dasharray:none" /><rect
     ry="0.87149829"
     y="146.12546"
     x="-59.324562"
     height="59.834343"
     width="101.04102"
     id="rect3979"
     style="fill:none;stroke:#000000;stroke-width:0.79828817;stroke-miterlimit:4;stroke-opacity:1;stroke-dasharray:none" /><rect
     ry="0.87149829"
     y="146.68993"
     x="246.60176"
     height="59.834343"
     width="101.04102"
     id="rect3985"
     style="fill:none;stroke:#000000;stroke-width:0.79828817;stroke-miterlimit:4;stroke-opacity:1;stroke-dasharray:none" /><rect
     style="fill:#ffffff;fill-opacity:1;stroke:#000000;stroke-width:0.79828817;stroke-miterlimit:4;stroke-opacity:1;stroke-dasharray:none"
     id="rect4054"
     width="101.04102"
     height="59.834343"
     x="90.145752"
     y="-100.87569"
     ry="0.87149829"
     transform="scale(1,-1)" /><path
     style="fill:none;stroke:#000000;stroke-width:1.19743216;stroke-linecap:butt;stroke-linejoin:miter;stroke-miterlimit:4;stroke-opacity:1;stroke-dasharray:none"
     d="m 142.57001,272.96627 c 0,0 -5.0754,-8.77402 -8.39657,-12.55957 -6.02346,-6.86568 -12.03808,-14.8921 -20.60334,-18.0632 -8.29378,-3.07059 -17.893659,-1.62129 -26.530315,0.28224 -11.184899,2.46517 -21.335385,8.51549 -31.328362,14.11187 -8.761168,4.90652 -16.249883,13.52125 -25.965846,13.26516 C 18.05724,269.6947 6.4498744,261.74377 -0.60741306,252.42138 -7.1917095,243.7238 -8.6118483,231.62225 -8.709634,220.71394 c -0.046716,-5.21136 -0.345104,-10.3561 -0.1653339,-14.86174"
     id="path4125"
     inkscape:connector-curvature="0"
     sodipodi:nodetypes="caaasaasc" /><path
     style="fill:none;stroke:#000000;stroke-width:1.19743216;stroke-linecap:butt;stroke-linejoin:miter;stroke-miterlimit:4;stroke-opacity:1;stroke-dasharray:none"
     d="m 166.34851,251.65733 c 0,0 -6.21222,-6.15045 -7.47929,-10.16054 -1.26166,-3.993 -1.14818,-8.62387 0.28224,-12.55957 1.13174,-3.11392 4.25921,-5.08296 6.20922,-7.76153 1.31823,-1.81074 2.98559,-3.48484 3.70369,-5.60636 1.04463,-3.08619 0.20012,-5.46176 0.67343,-9.75137"
     id="path4129"
     inkscape:connector-curvature="0"
     sodipodi:nodetypes="cssssc" /><path
     style="fill:none;stroke:#000000;stroke-width:1.19743216;stroke-linecap:butt;stroke-linejoin:miter;stroke-miterlimit:4;stroke-opacity:1;stroke-dasharray:none"
     d="m 113.00563,282.42122 c 0,0 -3.7692,-9.62287 -5.36251,-14.53523 -1.34164,-4.13642 -2.60172,-8.31081 -3.52797,-12.55957 -1.35901,-6.23382 -4.735879,-12.78079 -2.96349,-18.90991 1.90933,-6.60267 10.375,-9.43871 13.57211,-15.52306 2.34812,-4.46865 3.61136,-6.55009 3.73464,-14.67635"
     id="path4131"
     inkscape:connector-curvature="0"
     sodipodi:nodetypes="cssssc" /><path
     style="fill:none;stroke:#000000;stroke-width:1.19743216;stroke-linecap:butt;stroke-linejoin:miter;stroke-miterlimit:4;stroke-opacity:1;stroke-dasharray:none"
     d="m 118.29455,100.65508 0,45.50242 0,-0.19957"
     id="path4133"
     inkscape:connector-curvature="0" /><path
     style="fill:none;stroke:#000000;stroke-width:1.19743216;stroke-linecap:butt;stroke-linejoin:miter;stroke-miterlimit:4;stroke-opacity:1;stroke-dasharray:none"
     d="m 169.38499,100.85465 c 0,0.79829 0,45.10328 0,45.10328"
     id="path4135"
     inkscape:connector-curvature="0" /><path
     style="fill:none;stroke:#000000;stroke-width:1.19743216;stroke-linecap:butt;stroke-linejoin:miter;stroke-miterlimit:4;stroke-opacity:1;stroke-dasharray:none"
     d="m 41.599549,175.17098 52.213934,0 m 101.041017,0 51.64946,0"
     id="path4137"
     inkscape:connector-curvature="0"
     sodipodi:nodetypes="cccc" /><path
     inkscape:connector-curvature="0"
     id="path6025"
     style="fill:none;stroke:#000000;stroke-width:0.79828811;stroke-linecap:butt;stroke-linejoin:miter;stroke-miterlimit:10;stroke-opacity:1;stroke-dasharray:0.79828811, 1.59657623;stroke-dashoffset:0"
     d="m 157.67946,377.25164 0,10.74695 -21.49097,0 0,-10.74695 -10.74696,-10.74405 42.98489,0 -10.74696,10.74405 z" /><path
     d="m 210.24381,377.25164 0,10.74695 -21.49097,0 0,-10.74695 -10.74696,-10.74405 42.98489,0 -10.74696,10.74405 z"
     style="fill:none;stroke:#000000;stroke-width:0.79828811;stroke-linecap:butt;stroke-linejoin:miter;stroke-miterlimit:10;stroke-opacity:1;stroke-dasharray:0.79828811, 1.59657623;stroke-dashoffset:0"
     id="path4169"
     inkscape:connector-curvature="0" /><path
     inkscape:connector-curvature="0"
     id="path4173"
     style="fill:none;stroke:#000000;stroke-width:0.79828811;stroke-linecap:butt;stroke-linejoin:miter;stroke-miterlimit:10;stroke-opacity:1;stroke-dasharray:0.79828811, 1.59657623;stroke-dashoffset:0"
     d="m 262.80815,377.25164 0,10.74695 -21.49097,0 0,-10.74695 -10.74696,-10.74405 42.98489,0 -10.74696,10.74405 z" /><path
     d="m 315.3725,377.25164 0,10.74695 -21.49097,0 0,-10.74695 -10.74696,-10.74405 42.98489,0 -10.74696,10.74405 z"
     style="fill:none;stroke:#000000;stroke-width:0.79828811;stroke-linecap:butt;stroke-linejoin:miter;stroke-miterlimit:10;stroke-opacity:1;stroke-dasharray:0.79828811, 1.59657623;stroke-dashoffset:0"
     id="path4177"
     inkscape:connector-curvature="0" /><path
     inkscape:connector-curvature="0"
     id="path4181"
     style="fill:none;stroke:#000000;stroke-width:0.79828811;stroke-linecap:butt;stroke-linejoin:miter;stroke-miterlimit:10;stroke-opacity:1;stroke-dasharray:0.79828811, 1.59657623;stroke-dashoffset:0"
     d="m 105.11511,377.25164 0,10.74695 -21.490973,0 0,-10.74695 -10.74696,-10.74405 42.984893,0 -10.74696,10.74405 z" /><path
     d="m 52.550759,377.25164 0,10.74695 -21.490967,0 0,-10.74695 -10.74696,-10.74405 42.984887,0 -10.74696,10.74405 z"
     style="fill:none;stroke:#000000;stroke-width:0.79828811;stroke-linecap:butt;stroke-linejoin:miter;stroke-miterlimit:10;stroke-opacity:1;stroke-dasharray:0.79828811, 1.59657623;stroke-dashoffset:0"
     id="path4185"
     inkscape:connector-curvature="0" /><path
     inkscape:connector-curvature="0"
     id="path4189"
     style="fill:none;stroke:#000000;stroke-width:0.79828811;stroke-linecap:butt;stroke-linejoin:miter;stroke-miterlimit:10;stroke-opacity:1;stroke-dasharray:0.79828811, 1.59657623;stroke-dashoffset:0"
     d="m -0.01358462,377.25164 0,10.74695 -21.49096838,0 0,-10.74695 -10.746959,-10.74405 42.984887,0 -10.74695962,10.74405 z" /></svg>