<?xml version="1.0" encoding="UTF-8" standalone="no"?>
<!-- Created with Inkscape (http://www.inkscape.org/) -->

<svg
   xmlns:dc="http://purl.org/dc/elements/1.1/"
   xmlns:cc="http://creativecommons.org/ns#"
   xmlns:rdf="http://www.w3.org/1999/02/22-rdf-syntax-ns#"
   xmlns:svg="http://www.w3.org/2000/svg"
   xmlns="http://www.w3.org/2000/svg"
   xmlns:sodipodi="http://sodipodi.sourceforge.net/DTD/sodipodi-0.dtd"
   xmlns:inkscape="http://www.inkscape.org/namespaces/inkscape"
   width="457.51788"
   height="379.73615"
   id="svg2"
   version="1.1"
   inkscape:version="0.47 r22583"
   sodipodi:docname="apparatus.svg">
  <sodipodi:namedview
     id="base"
     pagecolor="#ffffff"
     bordercolor="#666666"
     borderopacity="1.0"
     inkscape:pageopacity="0.0"
     inkscape:pageshadow="2"
     inkscape:zoom="0.98994949"
     inkscape:cx="20.429009"
     inkscape:cy="159.12501"
     inkscape:document-units="px"
     inkscape:current-layer="layer1"
     showgrid="false"
     inkscape:window-width="1680"
     inkscape:window-height="977"
     inkscape:window-x="1680"
     inkscape:window-y="25"
     inkscape:window-maximized="1" />
  <defs
     id="defs4">
    <marker
       style="overflow:visible"
       id="Arrow1Mstart"
       refX="0"
       refY="0"
       orient="auto"
       inkscape:stockid="Arrow1Mstart">
      <path
         transform="matrix(0.4,0,0,0.4,4,0)"
         style="fill-rule:evenodd;stroke:#000000;stroke-width:1pt;marker-start:none"
         d="M 0,0 5,-5 -12.5,0 5,5 0,0 z"
         id="path4604" />
    </marker>
    <inkscape:perspective
       id="perspective10"
       inkscape:persp3d-origin="372.04724 : 350.78739 : 1"
       inkscape:vp_z="744.09448 : 526.18109 : 1"
       inkscape:vp_y="0 : 1000 : 0"
       inkscape:vp_x="0 : 526.18109 : 1"
       sodipodi:type="inkscape:persp3d" />
    <inkscape:perspective
       sodipodi:type="inkscape:persp3d"
       inkscape:vp_x="0 : 0.5 : 1"
       inkscape:vp_y="0 : 1000 : 0"
       inkscape:vp_z="1 : 0.5 : 1"
       inkscape:persp3d-origin="0.5 : 0.33333333 : 1"
       id="perspective3843" />
    <inkscape:perspective
       sodipodi:type="inkscape:persp3d"
       inkscape:vp_x="0 : 0.5 : 1"
       inkscape:vp_y="0 : 1000 : 0"
       inkscape:vp_z="1 : 0.5 : 1"
       inkscape:persp3d-origin="0.5 : 0.33333333 : 1"
       id="perspective4465" />
  </defs>
  <metadata
     id="metadata7">
    <rdf:RDF>
      <cc:Work
         rdf:about="">
        <dc:format>image/svg+xml</dc:format>
        <dc:type
           rdf:resource="http://purl.org/dc/dcmitype/StillImage" />
        <dc:title></dc:title>
      </cc:Work>
    </rdf:RDF>
  </metadata>
  <g
     id="layer1"
     inkscape:groupmode="layer"
     inkscape:label="Layer 1"
     transform="translate(3.8335867,-697.84974)">
    <rect
       y="702.12024"
       x="0.43690822"
       height="371.19516"
       width="448.9769"
       id="rect2816"
       style="fill:#ffffff;fill-opacity:1;fill-rule:nonzero;stroke:#000000;stroke-width:8.54098988;stroke-linecap:butt;stroke-linejoin:miter;stroke-miterlimit:4;stroke-opacity:1;stroke-dasharray:none;stroke-dashoffset:0" />
    <path
       id="path3590"
       d="m 292.94424,1044.7262 0,-321.10891"
       style="fill:none;stroke:#000000;stroke-width:1.0589031px;stroke-linecap:butt;stroke-linejoin:miter;stroke-opacity:1" />
    <path
       style="fill:#9a9c9d;fill-rule:evenodd;fill-opacity:1"
       d="m 151.33844,862.47591 c -4.85711,0 -8.80628,10.44083 -8.80628,23.33295 0,12.86953 3.94917,23.33296 8.80628,23.33296 4.87997,0 8.82942,-10.46343 8.82942,-23.33296 0,-12.89212 -3.94945,-23.33295 -8.82942,-23.33295 z"
       class="fil0"
       id="_46596072" />
    <path
       style="fill:#eeeeee;fill-rule:evenodd;fill-opacity:1"
       d="m 137.67478,885.92239 c 0,0.24502 0,0.4982 0,0.74867 0.16334,8.98814 10.28184,11.14459 13.98164,11.43942 1.86215,0.16335 7.53544,-2.02004 8.5569,-2.51825 0.90658,-0.43015 2.74641,-1.95199 3.33635,-2.76899 0.2178,-0.29403 0.43015,-0.90658 0.56628,-1.08898 0.70239,-0.90658 1.47556,-1.54363 1.7478,-1.86215 0.29402,-0.29403 1.11348,-1.54362 1.11348,-1.54362 0,0 0.70238,-0.27225 0.95285,-0.43015 0.31853,-0.19057 1.04542,-0.61256 1.29316,-0.86301 0.24502,-0.21781 0.31853,-0.70239 0.31853,-1.08898 0,-0.40837 -0.0817,-0.86302 -0.31853,-1.11348 -0.24502,-0.24502 -0.97463,-0.65883 -1.29316,-0.86301 -0.24502,-0.16335 -0.95285,-0.43015 -0.95285,-0.43015 0,0 -0.81674,-1.2496 -1.11348,-1.54363 -0.27224,-0.31852 -1.04269,-0.95285 -1.7478,-1.86215 -0.13613,-0.19056 -0.36209,-0.79495 -0.56628,-1.08897 -0.59077,-0.81674 -2.42841,-2.33858 -3.33635,-2.769 -1.02091,-0.49821 -6.69584,-2.67888 -8.5569,-2.51826 -3.6998,0.29403 -13.82265,2.45021 -13.98164,11.43943 0,0.24502 0,0.49821 0,0.7269 z"
       class="fil1"
       id="_46595968" />
    <path
       style="fill:#948b7c;fill-rule:evenodd"
       d="m 144.23423,875.77666 c 0.0229,0.0226 0.0817,0.0226 0.0817,0.0545 -0.0544,0 -0.0817,-0.0229 -0.0817,-0.0545 z"
       class="fil2"
       id="_46311856" />
    <path
       style="fill:#948b7c;fill-rule:evenodd"
       d="m 143.55335,877.00232 c -0.1089,-0.0545 -0.2178,-0.16335 -0.29403,-0.24502 0.10889,0.0545 0.2178,0.16334 0.29403,0.24502 z"
       class="fil2"
       id="_46311784" />
    <path
       style="fill:#595959;fill-rule:evenodd;fill-opacity:1"
       d="m 157.12635,897.36182 c -0.45465,0.21779 -0.99913,0.40836 -1.65797,0.54448 -0.56627,0.1089 -1.45379,0.27225 -2.56454,0.34031 0.81673,-0.54449 1.65797,-1.2496 2.29229,-1.99828 0.95286,-1.13525 1.52186,-2.88251 1.63348,-4.33521 0.0817,-0.72689 0.19056,-1.81586 -0.0226,-2.49648 0,1.15705 -1.11076,2.6326 -1.74782,3.54081 -0.88479,1.2496 -2.27051,1.61169 -3.4044,2.49648 1.08897,-0.84124 2.72353,-1.67974 2.99604,-3.15477 0.0817,-0.36208 0.0817,-0.86301 0.0544,-1.20331 -0.43014,0.90657 -1.76958,1.9302 -2.67887,2.29229 0.13612,-0.54449 0.45464,-0.88479 0.6806,-1.38572 0.36209,-0.77045 0.34032,-1.56541 0.34032,-2.40664 0,-0.63433 0.13611,-1.9057 -0.19058,-2.40664 -0.21779,0.49821 -0.77317,0.79495 -1.20332,1.08898 -1.33944,0.90657 -3.01864,1.2496 -4.49394,1.86215 -1.18153,0.5227 -1.9057,0.79495 -3.17762,0.70511 -0.65883,-0.0545 -1.31767,-0.0545 -1.97377,-0.19057 0.99913,-0.31853 1.5899,-0.74867 2.40663,-1.29316 0.52271,-0.36209 1.18154,-0.47643 1.65797,-0.88479 -0.63705,-0.52272 -3.94944,-0.49821 -4.47134,-0.77046 1.38573,-0.4982 2.7916,-0.56899 3.47275,-0.72688 -0.19057,-0.16335 -0.81673,-0.49821 -0.86302,-0.5445 -0.77045,-0.59077 -1.31493,-1.45378 -1.9302,-2.20245 0.21779,-0.13612 0.38659,-0.3403 0.6806,-0.47643 0.27225,-0.10889 0.63434,-0.0817 0.93108,-0.21779 0.52271,-0.19058 1.0672,-0.3403 1.54362,-0.49821 -0.93107,-0.29403 -1.90571,-0.61255 -2.85992,-0.95285 -0.68061,-0.27225 -1.38572,-0.13613 -2.06634,-0.29402 0.74868,-0.40837 1.38573,-0.81674 2.24602,-0.8848 0.47642,-0.0226 0.97463,0.0229 1.45378,0 -0.50093,-0.63433 -1.45378,-2.58632 -2.54275,-2.40664 0.93107,-0.16334 1.81586,-0.16334 2.76899,-0.19057 -0.24502,-0.38659 -0.49821,-0.97736 -0.83851,-1.33944 0.43286,0.27224 1.11347,0.38659 1.5654,0.36208 -0.27224,-0.45464 -0.40837,-1.20332 -0.81673,-1.54362 0.16334,0.10889 0.34031,0.0545 0.59077,0.0817 0.54449,0.0817 1.02091,0.29402 1.54362,0.40836 -0.19057,-0.61255 -0.47643,-1.27138 -0.88479,-1.81586 5.44733,-2.17796 10.3499,-0.81674 13.86811,1.02091 3.97205,2.06633 -4.65292,4.40327 -4.65292,4.40327 0,0 4.0853,2.1099 5.60605,6.87744 0.99914,3.0867 -0.93107,6.37785 -1.04269,6.6275 0.16335,-2.06632 0.36208,-2.06632 0.0544,-4.94803 -0.36209,3.51821 0.0544,6.69584 -1.5654,8.37531 -0.13612,0.13613 0.0817,-3.5634 -0.0817,-3.44987 -0.13611,0.10889 -0.45464,3.85852 -0.61254,3.94945 l 0,0 z"
       class="fil3"
       id="_46308248" />
    <path
       style="fill:#333333;fill-rule:evenodd;fill-opacity:1"
       d="m 152.90466,898.24716 c -2.33858,0.21779 -5.67439,0.0545 -8.92008,-1.72604 -4.24429,-2.31407 -6.94522,-5.78791 -6.94522,-10.16858 0,-3.7224 0.59077,-7.55805 6.42333,-10.82661 0.70239,-0.40837 1.4075,-0.74867 2.10989,-1.02091 0.40836,0.54448 0.70239,1.20331 0.88479,1.81586 -0.5227,-0.10889 -0.99913,-0.3403 -1.54362,-0.40836 -0.24502,-0.0226 -0.43015,0.0229 -0.59077,-0.0817 0.40837,0.34031 0.52271,1.08898 0.81673,1.54363 -0.45465,0.0229 -1.13526,-0.0817 -1.5899,-0.36209 -0.0817,-0.0817 -0.19058,-0.19057 -0.29403,-0.24502 0.0817,0.0817 0.19058,0.19058 0.29403,0.24502 0.36208,0.36209 0.61255,0.95286 0.86301,1.33945 -0.95285,0.0229 -1.83765,0.0229 -2.769,0.19056 1.08898,-0.19056 2.02005,1.76959 2.54277,2.40664 -0.47643,0.0229 -0.97464,-0.0226 -1.45379,0 -0.86302,0.0817 -1.49734,0.47643 -2.24601,0.88479 0.6806,0.16335 1.36122,0.0226 2.06633,0.29403 0.93108,0.34031 1.93021,0.65883 2.83705,0.95286 -0.45464,0.16335 -0.99913,0.31852 -1.52184,0.49821 -0.29402,0.10889 -0.65883,0.0817 -0.93107,0.21779 -0.29403,0.16334 -0.45465,0.3403 -0.68061,0.47643 0.61255,0.74866 1.13525,1.63346 1.9302,2.20245 0.0545,0.0544 0.65884,0.38659 0.83852,0.54449 -0.65883,0.19057 -2.06633,0.2178 -3.44988,0.72689 0.52271,0.27224 3.83592,0.24502 4.47134,0.77318 -0.47643,0.40836 -1.13526,0.5227 -1.65797,0.88478 -0.83851,0.5445 -1.4075,0.97736 -2.40664,1.29316 0.65884,0.13613 1.31494,0.1089 1.97378,0.19058 1.27137,0.0817 1.99827,-0.19058 3.17763,-0.70511 1.47556,-0.61255 3.15476,-0.95286 4.49393,-1.86216 0.43014,-0.29402 0.99914,-0.59077 1.20332,-1.08897 0.34031,0.4982 0.2178,1.76959 0.2178,2.40663 0,0.84124 0.0226,1.63347 -0.34031,2.40665 -0.21779,0.4982 -0.56626,0.84123 -0.70239,1.38572 0.93108,-0.36209 2.27052,-1.38572 2.70066,-2.29229 0.0226,0.3403 0.0226,0.84122 -0.0545,1.20331 -0.27224,1.47556 -1.93021,2.31408 -2.99605,3.15476 1.13527,-0.88479 2.51827,-1.24959 3.40469,-2.49648 0.61255,-0.90657 1.74781,-2.38213 1.74781,-3.5408 0.21779,0.68061 0.0817,1.76958 0.0229,2.49648 -0.13611,1.45378 -0.68061,3.2005 -1.63346,4.33521 -0.63432,0.74868 -1.47556,1.45379 -2.29229,2.02005 l 0,-0.0226 z m -8.6021,-22.42503 c -0.0229,-0.0229 -0.0544,-0.0229 -0.0817,-0.0544 0.0229,0.0226 0.0545,0.0544 0.0817,0.0544 z"
       class="fil4"
       id="_46308176" />
    <path
       style="fill:#000000;fill-rule:evenodd"
       d="m 164.72985,884.94639 c 0,-0.13612 -0.3403,-4.38067 -1.49734,-5.87856 -0.43015,-0.56627 -1.42928,-1.31766 -2.02005,-1.52185 0.93108,0.83852 1.54363,1.86215 1.93021,2.61083 0.31853,0.61254 1.36122,4.67552 1.4075,4.78904 0.0229,0.0545 0.2178,0.1089 0.19057,0 z"
       class="fil5"
       id="_46308104" />
    <path
       style="fill:#000000;fill-rule:evenodd"
       d="m 164.77531,887.01191 c 0,0.1089 -0.36208,4.38068 -1.49734,5.85597 -0.43014,0.56627 -1.42928,1.33945 -2.02005,1.54363 0.93108,-0.83852 1.54363,-1.88393 1.93022,-2.63261 0.31852,-0.59077 1.33944,-4.67579 1.4075,-4.78932 0.0229,-0.0545 0.21779,-0.10889 0.19056,0.0229 z"
       class="fil5"
       id="_46544320" />
    <g
       id="g3805"
       style="fill-rule:evenodd"
       transform="matrix(0,68.206979,-68.206979,0,189.09216,852.23409)">
      <path
         style="fill:#000000;fill-rule:nonzero"
         d="m 0.343157,0.668059 -0.00331,0.001855 1.476e-5,2.238e-5 L 0.33930367,0.66896186 0.33874319,0.6679871 0.33818891,0.66701281 0.33764796,0.66603805 0.3371051,0.66506376 0.33657558,0.664089 0.3360451,0.66311471 0.33552748,0.66213995 0.33500796,0.66116519 0.33449462,0.6601909 l -5e-4,-9.7476e-4 -5.019e-4,-9.819e-4 -4.8857e-4,-9.7476e-4 -4.9e-4,-9.7429e-4 L 0.33203748,0.65531043 0.33155939,0.65433614 0.33108653,0.65336186 0.33062748,0.65238757 0.330167,0.65141281 0.32971939,0.6504309 0.32927034,0.64945614 0.32883462,0.64848185 0.328397,0.64750709 l -4.2428e-4,-9.7476e-4 -4.2524e-4,-9.7429e-4 -4.1238e-4,-9.819e-4 -4.1429e-4,-9.7476e-4 -4.0047e-4,-9.7429e-4 -4.0191e-4,-9.7476e-4 -3.8905e-4,-9.7476e-4 -3.9095e-4,-9.8191e-4 -3.7714e-4,-9.7428e-4 0.003532,-0.001366 3.7714e-4,9.6e-4 3.7572e-4,9.5238e-4 3.8904e-4,9.5952e-4 3.8762e-4,9.5953e-4 4.0048e-4,9.6e-4 3.9905e-4,9.5952e-4 4.1238e-4,9.5238e-4 4.1095e-4,9.6e-4 4.2429e-4,9.5952e-4 4.2238e-4,9.5953e-4 4.3571e-4,9.6e-4 4.3381e-4,9.5952e-4 4.4762e-4,9.5238e-4 4.4619e-4,9.5953e-4 4.5905e-4,9.6e-4 4.5762e-4,9.5905e-4 4.6381e-4,9.6e-4 4.7666e-4,9.5952e-4 4.7477e-4,9.6e-4 4.8857e-4,9.5952e-4 4.8666e-4,9.5238e-4 5e-4,9.5953e-4 4.9905e-4,9.6e-4 5.0429e-4,9.5952e-4 5.1762e-4,9.5953e-4 5.1619e-4,9.6e-4 5.2952e-4,9.5952e-4 5.2762e-4,9.6e-4 5.4095e-4,9.5952e-4 5.4e-4,9.6e-4 5.4524e-4,9.5953e-4 5.5857e-4,9.5952e-4 1.476e-5,2.238e-5 z m -1.476e-5,-2.238e-5 1.476e-5,2.238e-5 4.857e-5,8.667e-5 -6.333e-5,-1.0905e-4 z m 0.157092,0.0932248 0,0.003799 0,0 -0.005136,-3.476e-5 -0.005159,-9.048e-5 -0.005164,-1.6619e-4 -0.005176,-2.5429e-4 -0.005179,-3.5523e-4 -0.005187,-4.7619e-4 -0.005186,-6.0096e-4 -0.00519,-7.3952e-4 -0.005192,-8.9048e-4 -0.005186,-0.00106 -0.005177,-0.001236 -0.005174,-0.001424 -0.005162,-0.001632 -0.005155,-0.001846 -0.005132,-0.002078 -0.005122,-0.002324 -0.005103,-0.002567 -0.005074,-0.002845 -0.005058,-0.00312 -0.005025,-0.003409 -0.005,-0.003709 -0.004962,-0.004029 -0.004932,-0.004355 -0.004892,-0.004693 -0.004859,-0.005051 -0.004822,-0.005406 -0.004778,-0.005782 -0.00473,-0.00617 -0.004689,-0.00657 -0.004645,-0.006983 -0.004593,-0.007409 -0.004546,-0.007839 0.00331,-0.001855 0.004487,0.00775 0.004533,0.007305 0.004572,0.006879 0.004614,0.006467 0.004656,0.006066 0.004688,0.005678 0.004719,0.005302 0.004755,0.004932 0.004789,0.004589 0.004813,0.004251 0.004844,0.003925 0.004865,0.00362 0.004892,0.003319 0.00491,0.003032 0.00494,0.002755 0.004954,0.002508 0.004973,0.00225 0.004999,0.002019 0.005007,0.001801 0.005029,0.001588 0.005041,0.001395 0.005058,0.001207 0.005067,0.001031 0.005074,8.7524e-4 0.005086,7.2429e-4 0.005096,5.8667e-4 0.005098,4.6095e-4 0.005105,3.5524e-4 0.005102,2.5428e-4 0.005105,1.6619e-4 0.005099,9.048e-5 0.005106,2.047e-5 0,0 z m 0,0 0,0 0,0 0,0 z m 0.14742,-0.100834 0.003325,0.00181 0,0 -0.003254,0.005804 -0.003353,0.005669 -0.003451,0.005537 -0.003556,0.005388 -0.003645,0.005242 -0.003748,0.005102 -0.003851,0.004943 -0.003939,0.004797 -0.00404,0.004631 -0.004134,0.004479 -0.004234,0.004315 -0.004318,0.00414 -0.004418,0.003979 -0.004515,0.003797 -0.004606,0.003622 -0.004695,0.00345 -0.004783,0.00326 -0.00488,0.003075 -0.004967,0.002879 -0.00506,0.002694 -0.005139,0.002492 -0.005232,0.002295 -0.005324,0.002094 -0.0054,0.001882 -0.005491,0.001675 -0.005574,0.001458 -0.005649,0.001251 -0.005738,0.00102 -0.005826,8.0809e-4 -0.005898,5.7762e-4 -0.005978,3.4429e-4 -0.006049,1.2286e-4 0,-0.003799 0.005915,-1.0858e-4 0.005829,-3.4428e-4 0.00575,-5.6238e-4 0.005663,-7.7857e-4 0.005589,-0.001005 0.005515,-0.001207 0.005426,-0.001427 0.005343,-0.001631 0.005267,-0.001837 0.005176,-0.002035 0.005099,-0.002235 0.00502,-0.002433 0.004927,-0.00262 0.004848,-0.00282 0.00476,-0.003 0.00468,-0.003186 0.004591,-0.00336 0.004502,-0.003548 0.004411,-0.003724 0.004328,-0.003889 0.004245,-0.004066 0.004144,-0.004226 0.00406,-0.004389 0.003966,-0.004557 0.00388,-0.004708 0.003777,-0.004869 0.003689,-0.005013 0.0036,-0.005168 0.003497,-0.005314 0.003406,-0.005448 0.003308,-0.005594 0.00321,-0.00573 0,0 z m 0.003325,0.00181 0,0 0,0 0,0 z m 0.0217357,-0.131573 0.003785,-2.2286e-4 0,-5.19e-5 2.6476e-4,0.003278 2.3e-4,0.003368 1.9238e-4,0.003441 1.5095e-4,0.003518 1.0619e-4,0.003599 5.81e-5,0.003663 7.14e-6,0.003731 -4.762e-5,0.003804 -1.0524e-4,0.003867 -1.6714e-4,0.003926 -2.319e-4,0.003982 -2.9953e-4,0.004036 -3.7857e-4,0.004087 -4.4619e-4,0.004135 -5.3095e-4,0.004187 -6.0571e-4,0.004221 -6.9762e-4,0.004268 -7.8619e-4,0.004304 -8.7715e-4,0.004337 -9.7238e-4,0.004367 -0.00107,0.004395 -0.00118,0.004419 -0.001277,0.00444 -0.001392,0.004459 -0.001504,0.004482 -0.00162,0.004487 -0.001738,0.004504 -0.001859,0.004503 -0.001984,0.004515 -0.00212,0.004509 -0.002252,0.004514 -0.002387,0.004502 -0.003325,-0.00181 0.002343,-0.004428 0.002207,-0.004425 0.002076,-0.004434 0.001955,-0.004426 0.00183,-0.004429 0.001708,-0.004416 0.00159,-0.004413 0.001475,-0.004392 0.001363,-0.004385 0.001262,-0.004366 0.00115,-0.004344 0.001056,-0.00432 9.5715e-4,-0.004293 8.6285e-4,-0.004263 7.7095e-4,-0.00423 6.8239e-4,-0.004194 6.0571e-4,-0.004162 5.1667e-4,-0.004112 4.4619e-4,-0.004076 3.6333e-4,-0.004027 2.9952e-4,-0.003977 2.3191e-4,-0.003923 1.6714e-4,-0.003866 1.0524e-4,-0.003808 4.762e-5,-0.003745 -7.14e-6,-0.003687 -5.81e-5,-0.003619 -1.0619e-4,-0.00354 -1.5095e-4,-0.003473 -1.9238e-4,-0.003396 -2.3e-4,-0.003309 -2.6476e-4,-0.003233 0,-5.191e-5 z m 0,5.19e-5 0,-5.19e-5 1.047e-5,1.7286e-4 -1.047e-5,-1.2096e-4 z m -0.004954,-0.0373876 0.00371,-7.5714e-4 1.476e-5,8.191e-5 1.2857e-4,7.8571e-4 1.3571e-4,8.1381e-4 1.4286e-4,8.4714e-4 1.4857e-4,8.6619e-4 1.5429e-4,9.0048e-4 1.5952e-4,9.2619e-4 1.6381e-4,9.5238e-4 1.6762e-4,9.7762e-4 1.7143e-4,0.001011 1.7381e-4,0.001028 1.7667e-4,0.001053 1.7809e-4,0.001085 1.7953e-4,0.00111 1.8e-4,0.001126 1.8047e-4,0.001158 1.8715e-4,0.001181 1.7904e-4,0.001205 1.7715e-4,0.001228 1.7523e-4,0.001251 1.7239e-4,0.00128 1.6952e-4,0.001296 1.7286e-4,0.001318 1.6143e-4,0.00134 1.5666e-4,0.001369 1.5143e-4,0.001383 1.4524e-4,0.001411 1.3905e-4,0.001426 1.3905e-4,0.001453 1.2476e-4,0.001474 1.1619e-4,0.001487 1.0714e-4,0.001514 9.857e-5,0.001534 -0.003785,2.2286e-4 -9.857e-5,-0.001504 -1.0714e-4,-0.001484 -1.1619e-4,-0.001471 -1.2476e-4,-0.001444 -1.2381e-4,-0.001423 -1.3905e-4,-0.00141 -1.4524e-4,-0.001382 -1.5143e-4,-0.001369 -1.5667e-4,-0.001339 -1.6143e-4,-0.001325 -1.5857e-4,-0.001303 -1.6952e-4,-0.001281 -1.7238e-4,-0.001251 -1.7524e-4,-0.001236 -1.7714e-4,-0.001212 -1.7905e-4,-0.00119 -1.7191e-4,-0.001166 -1.8047e-4,-0.001143 -1.8e-4,-0.001126 -1.7953e-4,-0.001094 -1.7809e-4,-0.00107 -1.7667e-4,-0.001053 -1.7381e-4,-0.001028 -1.7143e-4,-9.9572e-4 -1.6762e-4,-9.7762e-4 -1.6381e-4,-9.5238e-4 -1.5952e-4,-9.2619e-4 -1.5428e-4,-9.0047e-4 -1.4858e-4,-8.8143e-4 -1.4285e-4,-8.4715e-4 -1.3572e-4,-8.2809e-4 -1.2857e-4,-8.0095e-4 1.476e-5,8.19e-5 z m 0.00371,-7.5714e-4 7.14e-6,3.524e-5 7.62e-6,4.667e-5 -1.476e-5,-8.191e-5 z m -0.0111852,-0.0225705 0.002687,-0.002687 3.4857e-4,4.9762e-4 3.2476e-4,6.4238e-4 3.1381e-4,6.5048e-4 3.0953e-4,6.6619e-4 3.0571e-4,6.6619e-4 3.019e-4,6.7476e-4 2.9762e-4,6.8238e-4 2.9429e-4,6.9809e-4 2.9e-4,6.9905e-4 2.7905e-4,7.0715e-4 2.8238e-4,7.1571e-4 2.7809e-4,7.2429e-4 2.7477e-4,7.3238e-4 2.7095e-4,7.4095e-4 2.5905e-4,7.4952e-4 2.6285e-4,7.5857e-4 2.5905e-4,7.6667e-4 2.4762e-4,7.7619e-4 2.5095e-4,7.8476e-4 2.4e-4,7.9334e-4 2.4333e-4,8.0238e-4 2.3953e-4,8.1143e-4 2.2857e-4,8.2047e-4 2.3095e-4,8.3e-4 2.2048e-4,8.3143e-4 2.2428e-4,8.481e-4 2.1238e-4,8.5714e-4 2.0858e-4,8.6762e-4 2.119e-4,8.6857e-4 2.0095e-4,8.8571e-4 1.9667e-4,8.881e-4 2.0095e-4,9.0476e-4 1.8905e-4,9.1476e-4 -0.00371,7.5714e-4 -1.8905e-4,-8.8523e-4 -1.8571e-4,-8.7524e-4 -1.9667e-4,-8.7286e-4 -2.0095e-4,-8.5619e-4 -1.9762e-4,-8.5428e-4 -2.0857e-4,-8.3715e-4 -2.1238e-4,-8.2762e-4 -2.0905e-4,-8.1857e-4 -2.2048e-4,-8.1714e-4 -2.1666e-4,-7.9952e-4 -2.2857e-4,-7.9096e-4 -2.2429e-4,-7.819e-4 -2.281e-4,-7.7286e-4 -2.4e-4,-7.6381e-4 -2.3666e-4,-7.5524e-4 -2.4762e-4,-7.4571e-4 -2.4381e-4,-7.3714e-4 -2.4857e-4,-7.2905e-4 -2.5905e-4,-7.2e-4 -2.5571e-4,-7.1143e-4 -2.5953e-4,-7.0286e-4 -2.6381e-4,-6.9381e-4 -2.6714e-4,-6.8619e-4 -2.7905e-4,-6.7762e-4 -2.7571e-4,-6.6952e-4 -2.7905e-4,-6.5333e-4 -2.8333e-4,-6.5286e-4 -2.8667e-4,-6.4524e-4 -2.9048e-4,-6.3667e-4 -2.9524e-4,-6.2142e-4 -2.9857e-4,-6.2096e-4 -2.9523e-4,-6.1285e-4 3.4857e-4,4.9762e-4 z m 0.002687,-0.002687 1.9952e-4,1.9952e-4 1.4905e-4,2.981e-4 -3.4857e-4,-4.9762e-4 z m -0.0121014,7.14e-6 0.003547,-0.001321 -0.001529,-0.001217 4.7857e-4,6.334e-5 4.7143e-4,6.524e-5 4.5428e-4,6.666e-5 4.5334e-4,7.572e-5 4.3666e-4,6.904e-5 4.3429e-4,7.048e-5 4.1714e-4,7.143e-5 4.1381e-4,7.952e-5 3.9572e-4,7.238e-5 3.9238e-4,7.238e-5 3.7286e-4,8e-5 3.6904e-4,7.286e-5 3.4953e-4,7.238e-5 3.4428e-4,7.953e-5 3.3096e-4,7.142e-5 3.1095e-4,7.096e-5 3.0428e-4,7.666e-5 2.9762e-4,6.858e-5 2.681e-4,7.476e-5 2.6905e-4,6.571e-5 2.4571e-4,7.143e-5 2.3809e-4,6.905e-5 2.2239e-4,6.762e-5 2.1333e-4,6.523e-5 1.8952e-4,6.286e-5 1.7953e-4,6.714e-5 1.7809e-4,6.477e-5 1.7429e-4,6.904e-5 1.7143e-4,7.334e-5 1.8238e-4,10e-5 2.1619e-4,1.3333e-4 3.0809e-4,2.481e-4 -0.002687,0.002687 2.2619e-4,1.8142e-4 9.619e-5,6e-5 2.524e-5,1.905e-5 -2.286e-5,-1.428e-5 -5.619e-5,-2.429e-5 -8.857e-5,-3.524e-5 -1.2047e-4,-3.762e-5 -1.4477e-4,-4.762e-5 -1.5428e-4,-5.095e-5 -1.7762e-4,-5.238e-5 -1.9333e-4,-5.476e-5 -2.1619e-4,-5.619e-5 -2.2429e-4,-6.572e-5 -2.5381e-4,-5.952e-5 -2.5286e-4,-6.857e-5 -2.7476e-4,-6.238e-5 -2.9571e-4,-7.095e-5 -3.0143e-4,-7.143e-5 -3.1476e-4,-6.429e-5 -3.3429e-4,-7.238e-5 -3.3952e-4,-7.286e-5 -3.5858e-4,-6.571e-5 -3.619e-4,-7.238e-5 -3.8143e-4,-7.238e-5 -3.8429e-4,-6.429e-5 -4.019e-4,-7.143e-5 -4.0476e-4,-7.047e-5 -4.2143e-4,-6.905e-5 -4.2381e-4,-6.048e-5 -4.4e-4,-6.666e-5 -4.4095e-4,-6.524e-5 -4.4905e-4,-6.334e-5 -0.001529,-0.001217 z m 0.001529,0.001217 -0.001128,-1.5047e-4 -4.0048e-4,-0.001067 0.001529,0.001217 z m -0.002418,-0.011431 0,0.003799 0.00184,-0.00236 5.571e-5,2.3381e-4 6.524e-5,2.3191e-4 6e-5,2.3e-4 6.905e-5,2.2905e-4 6.286e-5,2.2714e-4 6.428e-5,2.2571e-4 7.381e-5,2.2477e-4 6.81e-5,2.3095e-4 7.714e-5,2.2238e-4 7.047e-5,2.2905e-4 7.953e-5,2.2095e-4 7.333e-5,2.2809e-4 8.238e-5,2.2715e-4 8.286e-5,2.1952e-4 7.667e-5,2.3429e-4 8.523e-5,2.1904e-4 7.905e-5,2.2667e-4 8.715e-5,2.3429e-4 8.809e-5,2.2714e-4 8.857e-5,2.3476e-4 8.953e-5,2.2762e-4 9.047e-5,2.3572e-4 8.334e-5,2.3666e-4 9.142e-5,2.2953e-4 9.191e-5,2.3857e-4 9.238e-5,2.3952e-4 9.286e-5,2.4048e-4 10e-5,2.4952e-4 9.333e-5,2.4381e-4 9.333e-5,2.5286e-4 9.334e-5,2.4667e-4 9.381e-5,2.5571e-4 -0.003547,0.001321 -9.381e-5,-2.4143e-4 -9.334e-5,-2.4667e-4 -9.333e-5,-2.3762e-4 -9.333e-5,-2.4381e-4 -8.572e-5,-2.3428e-4 -9.285e-5,-2.4048e-4 -9.239e-5,-2.3952e-4 -9.19e-5,-2.3857e-4 -9.143e-5,-2.4476e-4 -9.762e-5,-2.3667e-4 -9.047e-5,-2.3572e-4 -8.953e-5,-2.4285e-4 -8.857e-5,-2.3476e-4 -8.809e-5,-2.4143e-4 -8.715e-5,-2.3429e-4 -9.428e-5,-2.419e-4 -8.524e-5,-2.4858e-4 -9.191e-5,-2.3428e-4 -8.285e-5,-2.4905e-4 -8.238e-5,-2.4238e-4 -8.762e-5,-2.4238e-4 -7.953e-5,-2.5048e-4 -8.571e-5,-2.4428e-4 -7.714e-5,-2.5191e-4 -8.239e-5,-2.4619e-4 -7.38e-5,-2.5428e-4 -7.953e-5,-2.5524e-4 -7.809e-5,-2.5667e-4 -6.905e-5,-2.5857e-4 -7.429e-5,-2.6048e-4 -6.524e-5,-2.6143e-4 -7.095e-5,-2.6333e-4 0.00184,-0.00236 z m -0.00184,0.00236 -5.8953e-4,-0.00236 0.00243,0 -0.00184,0.00236 z m 0.004823,2.1762e-4 0.002687,-0.002687 0,0 2.9238e-4,3.7286e-4 2.4381e-4,5.6524e-4 4.667e-5,6.9905e-4 -1.7953e-4,6.319e-4 -2.7238e-4,4.3857e-4 -2.9095e-4,2.8286e-4 -2.5048e-4,1.7809e-4 -1.9381e-4,1.1096e-4 -1.9e-4,8.857e-5 -1.7047e-4,6.571e-5 -1.6715e-4,4.953e-5 -1.5428e-4,5e-5 -1.6476e-4,4.095e-5 -1.5286e-4,3.333e-5 -1.7762e-4,3.191e-5 -1.6524e-4,3.142e-5 -1.8238e-4,3.048e-5 -1.7714e-4,2.191e-5 -1.9381e-4,2.809e-5 -1.9619e-4,1.952e-5 -2.0524e-4,1.858e-5 -2.1476e-4,2.476e-5 -2.2286e-4,1.571e-5 -2.2571e-4,1.429e-5 -2.3334e-4,1.285e-5 -2.5e-4,1.143e-5 -2.5095e-4,9.53e-6 -2.5905e-4,8.57e-6 -2.6762e-4,6.19e-6 -2.7571e-4,4.76e-6 -2.8381e-4,2.86e-6 -2.8429e-4,8.09e-6 0,-0.003799 2.6905e-4,6.19e-6 2.5429e-4,-2.85e-6 2.4619e-4,-4.77e-6 2.3809e-4,-6.19e-6 2.2953e-4,-8.57e-6 2.2143e-4,-9.52e-6 2.0523e-4,-1.143e-5 2.0381e-4,-1.286e-5 1.9524e-4,-1.428e-5 1.7905e-4,-1.572e-5 1.7e-4,-9.52e-6 1.6048e-4,-1.857e-5 1.5143e-4,-1.953e-5 1.3476e-4,-1.381e-5 1.3238e-4,-2.19e-5 1.0809e-4,-1.524e-5 1.0619e-4,-1.619e-5 7.381e-5,-1.762e-5 7.857e-5,-1.809e-5 4.572e-5,-1.143e-5 3.619e-5,-5.24e-6 3.33e-6,-5.71e-6 -2.19e-5,8.57e-6 -6.238e-5,3.047e-5 -8.81e-5,5.191e-5 -1.6571e-4,1.1905e-4 -2.281e-4,2.219e-4 -2.3238e-4,3.7762e-4 -1.6143e-4,5.7e-4 4.191e-5,6.3714e-4 2.1619e-4,5.0334e-4 2.419e-4,3.1e-4 0,0 z m 0.002687,-0.002687 0,0 0,0 0,0 z m -0.009787,-0.003343 0.003577,-0.001276 -6.9048e-4,-9.0524e-4 2.1857e-4,1.5619e-4 2.181e-4,1.5572e-4 2.2571e-4,1.6333e-4 2.181e-4,1.5667e-4 2.1762e-4,1.5667e-4 2.1762e-4,1.5666e-4 2.2476e-4,1.6476e-4 2.1666e-4,1.581e-4 2.2286e-4,1.5809e-4 2.2333e-4,1.6572e-4 2.1524e-4,1.5952e-4 2.2143e-4,1.6762e-4 2.2095e-4,1.6048e-4 2.2e-4,1.6952e-4 2.2e-4,1.6953e-4 2.1857e-4,1.7095e-4 2.1715e-4,1.6428e-4 2.1666e-4,1.7238e-4 2.1524e-4,1.7381e-4 2.1429e-4,1.7524e-4 2.2047e-4,1.7619e-4 2.1191e-4,1.7762e-4 2.1e-4,1.8619e-4 2.1619e-4,1.8e-4 2.0762e-4,1.8191e-4 2.1333e-4,1.8333e-4 2.1191e-4,1.919e-4 2.0285e-4,1.9381e-4 2.0857e-4,1.8858e-4 2.0667e-4,1.9714e-4 2.0476e-4,1.9905e-4 2.0334e-4,1.9333e-4 -0.002687,0.002687 -1.7286e-4,-1.7905e-4 -1.7524e-4,-1.6952e-4 -1.7714e-4,-1.6762e-4 -1.7905e-4,-1.7333e-4 -1.8762e-4,-1.6429e-4 -1.8238e-4,-1.6238e-4 -1.8381e-4,-1.681e-4 -1.9238e-4,-1.6666e-4 -1.8667e-4,-1.6572e-4 -1.9571e-4,-1.5666e-4 -1.9667e-4,-1.6239e-4 -1.9095e-4,-1.619e-4 -1.9905e-4,-1.6e-4 L 0.65034486,0.4573687 0.65014343,0.4572106 0.64994057,0.45704632 0.64973724,0.4568906 0.64953248,0.45673537 0.64932676,0.45658108 0.64912105,0.4564206 0.64891391,0.45626822 0.64869867,0.4561087 0.64849057,0.45595727 0.648282,0.45579917 0.64806534,0.45564108 0.64785581,0.45549156 0.64763819,0.45533489 0.64742057,0.45517822 0.64720248,0.45502155 0.646992,0.45487251 0.64677391,0.45471679 0.64655534,0.4545606 0.64586486,0.45365536 z m 6.9047e-4,9.0524e-4 -4.9285e-4,-3.519e-4 -1.9762e-4,-5.5334e-4 6.9047e-4,9.0524e-4 z m -0.0125962,-0.030351 0.003429,-0.001618 -2.238e-5,-3.667e-5 2.3286e-4,4.7e-4 2.4571e-4,5.0619e-4 2.5858e-4,5.3477e-4 2.7142e-4,5.7047e-4 2.7572e-4,6.1191e-4 2.9571e-4,6.3904e-4 2.9953e-4,6.7191e-4 3.1809e-4,7.0476e-4 3.2095e-4,7.3714e-4 3.3143e-4,7.6858e-4 3.4857e-4,7.9952e-4 3.5143e-4,8.2286e-4 3.6048e-4,8.5904e-4 3.7667e-4,8.8905e-4 3.7809e-4,9.1715e-4 3.8571e-4,9.3761e-4 4.0096e-4,9.7286e-4 4.0143e-4,9.9953e-4 4.0809e-4,0.001025 4.1524e-4,0.001043 4.2905e-4,0.001076 4.2714e-4,0.0011 4.3286e-4,0.001116 4.4523e-4,0.001147 4.4334e-4,0.001169 4.4762e-4,0.001183 4.5143e-4,0.001211 4.6333e-4,0.001233 4.5905e-4,0.001245 4.619e-4,0.001271 4.6429e-4,0.001291 4.7476e-4,0.001301 -0.003577,0.001276 -4.5952e-4,-0.001301 -4.6429e-4,-0.001276 -4.6191e-4,-0.001257 -4.5904e-4,-0.001245 -4.481e-4,-0.001218 -4.5143e-4,-0.001197 -4.4762e-4,-0.001183 -4.4333e-4,-0.001154 -4.3095e-4,-0.001131 -4.3286e-4,-0.001116 -4.2714e-4,-0.001085 -4.1381e-4,-0.00106 -4.1524e-4,-0.001043 -4.0809e-4,-0.00101 -4.0143e-4,-9.8429e-4 -3.8667e-4,-9.5762e-4 -3.8571e-4,-9.3762e-4 -3.781e-4,-9.0286e-4 -3.6143e-4,-8.7381e-4 -3.6047e-4,-8.4476e-4 -3.5143e-4,-8.2285e-4 -3.3429e-4,-7.8429e-4 -3.3143e-4,-7.5429e-4 -3.2095e-4,-7.219e-4 -3.0286e-4,-6.8953e-4 -2.9952e-4,-6.5761e-4 -2.8048e-4,-6.2381e-4 -2.7571e-4,-5.8239e-4 -2.5714e-4,-5.5523e-4 -2.4334e-4,-5.2048e-4 -2.3143e-4,-4.7667e-4 -2.1762e-4,-4.4047e-4 -2.238e-5,-3.667e-5 z m 2.239e-5,3.667e-5 -2.239e-5,-3.667e-5 -7.666e-5,-1.619e-4 9.904e-5,1.9857e-4 z m -0.0399824,-0.0482048 0.002152,-0.003116 2.952e-5,2.19e-5 0.001204,9.0095e-4 0.001253,0.001002 0.001296,0.00109 0.001335,0.001173 0.001368,0.001257 0.001405,0.001335 0.001436,0.001406 0.001456,0.001466 0.001485,0.001533 0.001495,0.001581 0.0015,0.001629 0.001515,0.001672 0.001517,0.00171 0.001508,0.001733 0.001508,0.001766 0.001497,0.001785 0.001472,0.001799 0.001459,0.001807 0.001424,0.001809 0.001401,0.001805 0.001358,0.001795 0.001325,0.00178 0.001279,0.001758 0.001222,0.001738 0.001174,0.001705 0.001114,0.001666 0.001057,0.001621 9.7952e-4,0.001578 9.1334e-4,0.001529 8.3381e-4,0.001467 7.4952e-4,0.001406 6.6857e-4,0.001346 -0.003429,0.001618 -6.0857e-4,-0.001228 -7.0571e-4,-0.001316 -7.8905e-4,-0.001392 -8.6857e-4,-0.001454 -9.5e-4,-0.001519 -0.001012,-0.001577 -0.001084,-0.001622 -0.001144,-0.00166 -0.001207,-0.001693 -0.00125,-0.001729 -0.001295,-0.00175 -0.001343,-0.001765 -0.001372,-0.001775 -0.00141,-0.001779 -0.001429,-0.001777 -0.001457,-0.00177 -0.001467,-0.001756 -0.001479,-0.001736 -0.001492,-0.001718 -0.001488,-0.00168 -0.001485,-0.001642 -0.001484,-0.0016 -0.001465,-0.00155 -0.00144,-0.00149 -0.001426,-0.001435 -0.001391,-0.001362 -0.001361,-0.00129 -0.001323,-0.001212 -0.001275,-0.001128 -0.001222,-0.001031 -0.001163,-9.2809e-4 -0.0011,-8.2667e-4 2.952e-5,2.191e-5 z m 0.002152,-0.003116 2.952e-5,2.19e-5 -4.857e-5,-3.524e-5 1.905e-5,1.334e-5 z m -0.0185624,-0.005277 0.00236,-0.002969 -1.2619e-4,-9.619e-5 2.3857e-4,1.6095e-4 2.9381e-4,1.6905e-4 3.2523e-4,1.9095e-4 3.6239e-4,1.9809e-4 3.9619e-4,2.0429e-4 4.2238e-4,2.1762e-4 4.5238e-4,2.2381e-4 4.7428e-4,2.3e-4 5.0191e-4,2.3476e-4 5.1809e-4,2.4762e-4 5.3429e-4,2.4524e-4 5.5524e-4,2.5666e-4 5.6e-4,2.6096e-4 5.7714e-4,2.6476e-4 5.8429e-4,2.6809e-4 5.9762e-4,2.7143e-4 5.9476e-4,2.7429e-4 6.0381e-4,2.8428e-4 6.0381e-4,2.7953e-4 6.0143e-4,2.8095e-4 5.9809e-4,2.9095e-4 5.9191e-4,2.9143e-4 5.919e-4,2.9333e-4 5.8191e-4,2.9381e-4 5.7047e-4,2.9429e-4 5.6381e-4,2.9429e-4 5.481e-4,3.019e-4 5.3095e-4,2.9381e-4 5.1857e-4,3.0762e-4 4.9762e-4,2.9952e-4 4.8143e-4,3.0572e-4 4.5619e-4,3.119e-4 -0.002152,0.003116 -3.8191e-4,-2.519e-4 -4.0714e-4,-2.6095e-4 -4.3762e-4,-2.7e-4 L 0.59231339,0.374994 0.5918272,0.37471543 0.59132291,0.37444304 0.59080386,0.374164 0.59026291,0.373884 0.58971053,0.37360543 0.5891491,0.37332733 0.58857148,0.37305019 0.58798863,0.37277447 0.58740148,0.37249352 0.58681291,0.372214 l -5.8857e-4,-2.7e-4 -5.9476e-4,-2.7429e-4 -5.8333e-4,-2.7143e-4 -5.8429e-4,-2.6809e-4 -5.7714e-4,-2.6476e-4 -5.7429e-4,-2.6096e-4 -5.5524e-4,-2.5666e-4 -5.4952e-4,-2.5953e-4 -5.3333e-4,-2.4762e-4 -5.1619e-4,-2.5e-4 -5.0381e-4,-2.4428e-4 -4.8286e-4,-2.3905e-4 -4.6619e-4,-2.3286e-4 -4.4095e-4,-2.3381e-4 -4.2143e-4,-2.2762e-4 -3.9953e-4,-2.2047e-4 -3.6809e-4,-2.281e-4 -3.5762e-4,-2.2095e-4 -1.2619e-4,-9.619e-5 z m 1.2619e-4,9.619e-5 -3.191e-5,-2.095e-5 -9.429e-5,-7.524e-5 1.2619e-4,9.619e-5 z m -0.0272438,-0.0258605 0.002687,-0.002687 -1.1143e-4,-9.619e-5 4.8e-4,4.2524e-4 5.0714e-4,4.5904e-4 5.2667e-4,4.9953e-4 5.4571e-4,5.2952e-4 5.6524e-4,5.5905e-4 5.9905e-4,5.9476e-4 6.1047e-4,6.2857e-4 6.4381e-4,6.6048e-4 6.6953e-4,6.9143e-4 6.8762e-4,7.1333e-4 7.1333e-4,7.4048e-4 7.3857e-4,7.6714e-4 7.6381e-4,7.9143e-4 7.8143e-4,8.0714e-4 8.1333e-4,8.3619e-4 8.3e-4,8.4905e-4 8.5524e-4,8.6714e-4 8.8667e-4,8.9143e-4 9.0285e-4,8.9953e-4 9.2667e-4,9.1428e-4 9.5048e-4,9.2572e-4 9.6666e-4,9.3e-4 9.9715e-4,9.4666e-4 0.001021,9.5429e-4 0.001035,9.6047e-4 0.001066,9.581e-4 0.001081,9.6905e-4 0.001103,9.6238e-4 0.001126,9.6333e-4 0.001148,9.7e-4 0.00117,9.5905e-4 0.001191,9.5476e-4 -0.00236,0.002969 -0.00122,-9.8524e-4 -0.0012,-9.8857e-4 -0.001177,-9.8428e-4 -0.001155,-9.9286e-4 -0.001133,-9.9286e-4 -0.001111,-9.8333e-4 -0.00108,-9.8762e-4 -0.001066,-9.7571e-4 -0.001035,-9.6953e-4 -0.001012,-9.6095e-4 -9.9619e-4,-9.5952e-4 -9.6477e-4,-9.4096e-4 -9.419e-4,-9.2857e-4 -9.181e-4,-9.1476e-4 -8.8666e-4,-8.9143e-4 -8.6953e-4,-8.8238e-4 -8.4523e-4,-8.6333e-4 -8.1334e-4,-8.3619e-4 -7.9571e-4,-8.2238e-4 -7.6381e-4,-7.9143e-4 -7.3857e-4,-7.6714e-4 -7.1334e-4,-7.4048e-4 -6.8761e-4,-7.1333e-4 -6.5524e-4,-6.7619e-4 -6.2857e-4,-6.4619e-4 -6.1048e-4,-6.1334e-4 -5.6952e-4,-5.7952e-4 -5.5e-4,-5.4476e-4 -5.1619e-4,-5e-4 -4.8286e-4,-4.5476e-4 -4.4714e-4,-4.1429e-4 -4.2096e-4,-3.6619e-4 -1.1142e-4,-9.619e-5 z m 1.1142e-4,9.619e-5 -1.0666e-4,-9.143e-5 -4.76e-6,-4.76e-6 1.1142e-4,9.619e-5 z m -0.0231629,-0.0170624 0.003532,-0.001366 -7.2714e-4,-9.0524e-4 5.286e-5,4.191e-5 1.5381e-4,9.38e-5 2.4952e-4,1.7143e-4 3.4572e-4,2.2381e-4 4.2238e-4,2.7905e-4 5.0047e-4,3.3191e-4 5.7191e-4,3.8e-4 6.4524e-4,4.3238e-4 6.9809e-4,4.6666e-4 7.5191e-4,5.0429e-4 8.0714e-4,5.3857e-4 8.419e-4,5.7714e-4 8.8619e-4,5.9619e-4 9.0905e-4,6.2e-4 9.4095e-4,6.4762e-4 9.5191e-4,6.5572e-4 9.719e-4,6.6857e-4 9.7143e-4,6.8524e-4 9.8e-4,6.8285e-4 9.7429e-4,6.9286e-4 9.6381e-4,6.9048e-4 9.4714e-4,6.7809e-4 9.2381e-4,6.7714e-4 8.9524e-4,6.6381e-4 8.681e-4,6.481e-4 8.2761e-4,6.3571e-4 7.8096e-4,6.1286e-4 7.3666e-4,5.8571e-4 6.781e-4,5.5524e-4 6.2095e-4,5.3572e-4 5.6619e-4,5.0571e-4 4.9762e-4,4.7191e-4 -0.002687,0.002687 -3.9381e-4,-3.8334e-4 -4.7667e-4,-4.3143e-4 -5.619e-4,-4.7666e-4 -6.3334e-4,-5.2572e-4 -6.919e-4,-5.5524e-4 -7.5143e-4,-5.8333e-4 -7.9809e-4,-6.0619e-4 -8.3858e-4,-6.3286e-4 -8.8e-4,-6.4952e-4 -9.0952e-4,-6.619e-4 -9.319e-4,-6.781e-4 -9.4858e-4,-6.7619e-4 -9.6e-4,-6.7762e-4 -9.6476e-4,-6.8286e-4 -9.7143e-4,-6.7095e-4 -9.5762e-4,-6.6857e-4 -9.519e-4,-6.5571e-4 -9.2571e-4,-6.3238e-4 -9.0905e-4,-6.2e-4 -8.7095e-4,-5.9619e-4 -8.4191e-4,-5.6191e-4 -7.9286e-4,-5.3857e-4 -7.519e-4,-5.0429e-4 -6.981e-4,-4.6666e-4 -6.3e-4,-4.181e-4 -5.719e-4,-3.8e-4 -5.0048e-4,-3.319e-4 L 0.5289342,0.326339 0.52860277,0.32611519 0.52835325,0.325959 l -1.5381e-4,-1.0905e-4 -5.286e-5,-2.667e-5 -7.2714e-4,-9.0523e-4 z m 7.2715e-4,9.0524e-4 -5.0429e-4,-3.3e-4 -2.2286e-4,-5.7524e-4 7.2715e-4,9.0524e-4 z m -0.006879,-0.014541 0.00319,-0.002048 0,7.14e-6 2.5285e-4,4.0714e-4 2.5429e-4,4.3476e-4 2.5429e-4,4.6048e-4 2.6095e-4,4.8286e-4 2.6667e-4,5.0905e-4 2.6381e-4,5.3285e-4 2.6714e-4,5.4572e-4 2.7e-4,5.6285e-4 2.7047e-4,5.7762e-4 2.6429e-4,5.8048e-4 2.7143e-4,5.8857e-4 2.619e-4,6.0095e-4 2.6715e-4,5.9524e-4 2.5524e-4,5.9333e-4 2.5809e-4,5.8953e-4 2.4524e-4,5.7428e-4 2.4571e-4,5.7048e-4 2.3e-4,5.5762e-4 2.2143e-4,5.3238e-4 2.1191e-4,5.2e-4 2.0047e-4,4.9714e-4 1.9572e-4,4.6333e-4 1.7523e-4,4.4143e-4 1.6143e-4,4.0143e-4 1.4667e-4,3.7286e-4 1.3762e-4,3.2714e-4 1.1286e-4,2.9286e-4 9.476e-5,2.4048e-4 7.571e-5,1.9238e-4 5.524e-5,1.4143e-4 3.381e-5,8.714e-5 1.143e-5,3.666e-5 -0.003532,0.001366 -1.143e-5,-2.238e-5 -3.381e-5,-8.714e-5 -5.524e-5,-1.4143e-4 -7.571e-5,-1.9238e-4 -9.476e-5,-2.4048e-4 -1.1286e-4,-2.7761e-4 -1.2238e-4,-3.2715e-4 -1.4667e-4,-3.5857e-4 -1.6143e-4,-4.0143e-4 -1.7524e-4,-4.2619e-4 -1.8142e-4,-4.6333e-4 -2.0048e-4,-4.8191e-4 -2.1191e-4,-5.0571e-4 -2.2142e-4,-5.3238e-4 -2.3e-4,-5.4238e-4 -2.3048e-4,-5.5619e-4 -2.4524e-4,-5.7429e-4 -2.4381e-4,-5.7428e-4 -2.5524e-4,-5.7905e-4 -2.519e-4,-5.8e-4 -2.6191e-4,-5.7143e-4 -2.5619e-4,-5.7333e-4 -2.6428e-4,-5.6619e-4 -2.5619e-4,-5.4715e-4 -2.5476e-4,-5.3333e-4 -2.5286e-4,-5.1619e-4 -2.4857e-4,-4.8809e-4 -2.3715e-4,-4.6524e-4 -2.3142e-4,-4.381e-4 -2.2477e-4,-4.0143e-4 -2.0952e-4,-3.6047e-4 -1.9286e-4,-3.1762e-4 0,7.14e-6 z m 0.00319,-0.002048 0,7.14e-6 -4.5286e-4,-7.1143e-4 4.5286e-4,7.0429e-4 z m -0.0155838,-0.0166005 0.002687,-0.002687 0,0 3.9428e-4,4.1571e-4 3.9953e-4,4.4619e-4 4.0381e-4,4.7476e-4 4.0714e-4,5.0143e-4 4.1714e-4,5.2572e-4 4.2572e-4,5.5476e-4 4.2619e-4,5.8143e-4 4.2524e-4,5.9809e-4 4.3904e-4,6.2714e-4 4.3619e-4,6.3239e-4 4.4e-4,6.5666e-4 4.4286e-4,6.7191e-4 4.4524e-4,6.7666e-4 4.4571e-4,6.8715e-4 4.4619e-4,6.9381e-4 4.3762e-4,7e-4 4.4333e-4,7.0238e-4 4.3239e-4,7.0333e-4 4.2904e-4,6.9381e-4 4.3096e-4,6.9714e-4 4.1809e-4,6.8286e-4 4.1143e-4,6.7429e-4 4.0333e-4,6.6285e-4 3.9476e-4,6.4905e-4 3.8477e-4,6.3286e-4 3.7428e-4,6.1476e-4 3.6238e-4,5.9381e-4 3.4286e-4,5.6333e-4 3.3619e-4,5.4477e-4 3.2143e-4,5.0952e-4 2.9809e-4,4.7952e-4 2.8191e-4,4.3905e-4 -0.00319,0.002048 -2.9714e-4,-4.6857e-4 -3.1334e-4,-4.9381e-4 -3.2143e-4,-5.2476e-4 -3.3619e-4,-5.4476e-4 -3.5714e-4,-5.7762e-4 -3.6238e-4,-5.9381e-4 -3.7429e-4,-6.1476e-4 -3.8476e-4,-6.3286e-4 -3.9476e-4,-6.4905e-4 -4.0333e-4,-6.6286e-4 -4.1143e-4,-6.7428e-4 -4.181e-4,-6.8286e-4 -4.1666e-4,-6.8286e-4 -4.2905e-4,-6.9381e-4 -4.3238e-4,-6.8809e-4 -4.281e-4,-6.881e-4 -4.3762e-4,-6.8476e-4 -4.3095e-4,-6.7952e-4 -4.3143e-4,-6.7191e-4 -4.3e-4,-6.6143e-4 -4.2857e-4,-6.4238e-4 -4.2476e-4,-6.2714e-4 -4.2191e-4,-6.1714e-4 -4.0857e-4,-5.8334e-4 -4.1095e-4,-5.6857e-4 -3.9667e-4,-5.3666e-4 -3.8095e-4,-5.1e-4 -3.7238e-4,-4.8096e-4 -3.6238e-4,-4.4238e-4 -3.4476e-4,-4.0047e-4 -3.2524e-4,-3.5762e-4 -3.0571e-4,-3.1095e-4 0,0 z m 0,0 0,0 0,0 0,0 z m -0.0149624,-0.004103 0,-0.003799 0,0 5.7809e-4,1e-5 5.8905e-4,9.04e-6 5.9143e-4,1.572e-5 5.9333e-4,2.238e-5 5.9429e-4,2.952e-5 6.0286e-4,3.667e-5 5.9476e-4,4.476e-5 6.019e-4,6e-5 5.9238e-4,6.048e-5 6.0572e-4,7.666e-5 5.9524e-4,7.81e-5 5.9142e-4,9.524e-5 5.9524e-4,1.0428e-4 5.9e-4,1.1429e-4 5.7715e-4,1.2429e-4 5.8666e-4,1.3428e-4 5.7143e-4,1.4572e-4 5.7143e-4,1.6381e-4 5.6381e-4,1.7523e-4 5.6191e-4,1.8667e-4 5.4523e-4,1.9952e-4 5.4238e-4,2.181e-4 5.3143e-4,2.3095e-4 5.2762e-4,2.5095e-4 5.1524e-4,2.6477e-4 5.0191e-4,2.8571e-4 4.8904e-4,2.9905e-4 4.8238e-4,3.1333e-4 4.6e-4,3.3476e-4 4.5143e-4,3.5667e-4 4.3524e-4,3.8e-4 4.1905e-4,3.9429e-4 -0.002687,0.002687 -2.8476e-4,-2.7619e-4 -3.0191e-4,-2.6096e-4 -3.1809e-4,-2.5285e-4 -3.4095e-4,-2.4619e-4 -3.4905e-4,-2.3905e-4 -3.7e-4,-2.2476e-4 -3.8381e-4,-2.1143e-4 -3.9619e-4,-2.0476e-4 -4.0857e-4,-1.9191e-4 -4.2762e-4,-1.8619e-4 -4.3857e-4,-1.7429e-4 -4.5667e-4,-1.6904e-4 -4.581e-4,-1.5715e-4 -4.7428e-4,-1.4571e-4 -4.8286e-4,-1.3429e-4 -4.9714e-4,-1.3047e-4 -4.9714e-4,-1.2e-4 -5.181e-4,-1.0905e-4 -5.1571e-4,-10e-5 -5.2096e-4,-8.905e-5 -5.3238e-4,-8e-5 -5.3523e-4,-7.809e-5 -5.3143e-4,-6.238e-5 -5.4857e-4,-6.048e-5 -5.4191e-4,-4.476e-5 -5.5095e-4,-4.476e-5 -5.4286e-4,-3.667e-5 -5.4952e-4,-2.952e-5 -5.4953e-4,-2.239e-5 -5.4666e-4,-1.571e-5 -5.4429e-4,-9.05e-6 -5.4857e-4,4.29e-6 0,0 z m 0,0 0,0 0,0 0,0 z m -0.01463,0.004103 -0.002687,-0.002687 -5.905e-5,6.714e-5 3.9667e-4,-4.0952e-4 4.1714e-4,-3.8715e-4 4.3714e-4,-3.6428e-4 4.481e-4,-3.5e-4 4.6619e-4,-3.2048e-4 4.8285e-4,-3.0667e-4 4.9858e-4,-2.8571e-4 5.1381e-4,-2.6429e-4 5.2095e-4,-2.5095e-4 5.2619e-4,-2.3095e-4 5.3857e-4,-2.1857e-4 5.5e-4,-2.0667e-4 5.6095e-4,-1.8667e-4 5.6286e-4,-1.7523e-4 5.7095e-4,-1.6381e-4 5.719e-4,-1.4572e-4 5.8619e-4,-1.3428e-4 5.7667e-4,-1.2429e-4 5.8953e-4,-1.1429e-4 5.9381e-4,-1.0428e-4 5.8904e-4,-9.524e-5 5.9191e-4,-7.81e-5 5.9238e-4,-7.666e-5 5.9333e-4,-6.048e-5 5.9286e-4,-6e-5 5.8381e-4,-4.476e-5 5.819e-4,-3.667e-5 5.781e-4,-2.952e-5 5.819e-4,-2.238e-5 5.6905e-4,-1.572e-5 5.6334e-4,-9.04e-6 5.4904e-4,-1e-5 0,0.003799 -5.1952e-4,-4.29e-6 -5.1857e-4,9.05e-6 -5.2429e-4,1.571e-5 -5.2285e-4,2.238e-5 -5.3334e-4,2.953e-5 -5.3714e-4,3.666e-5 -5.4e-4,4.477e-5 -5.3286e-4,4.476e-5 -5.3428e-4,6.047e-5 -5.3334e-4,6.239e-5 -5.319e-4,7.809e-5 -5.3e-4,8e-5 -5.1953e-4,8.905e-5 -5.1523e-4,1e-4 -5.1762e-4,1.0905e-4 -4.9667e-4,1.2e-4 -4.9762e-4,1.3047e-4 -4.8238e-4,1.3429e-4 -4.7333e-4,1.4571e-4 -4.5715e-4,1.5715e-4 -4.4619e-4,1.619e-4 -4.3476e-4,1.7381e-4 -4.2238e-4,1.8619e-4 -4.019e-4,1.9191e-4 -3.8048e-4,2.0523e-4 -3.6524e-4,2.1143e-4 -3.4952e-4,2.1715e-4 -3.3191e-4,2.319e-4 -3.1476e-4,2.3095e-4 -2.8857e-4,2.4524e-4 -2.6952e-4,2.5381e-4 -2.481e-4,2.6095e-4 -5.905e-5,6.715e-5 z m 5.904e-5,-6.715e-5 -5.904e-5,6.715e-5 -2.191e-5,2.19e-5 8.095e-5,-8.905e-5 z m -0.0124524,0.0187081 -0.00319,-0.002033 0,-7.14e-6 2.8191e-4,-4.3905e-4 2.9809e-4,-4.7952e-4 3.2191e-4,-5.0953e-4 3.2905e-4,-5.4476e-4 3.4952e-4,-5.6333e-4 3.6286e-4,-5.9381e-4 3.7381e-4,-6.1476e-4 3.8524e-4,-6.3286e-4 3.9476e-4,-6.4905e-4 4.0333e-4,-6.6285e-4 4.1143e-4,-6.7429e-4 4.1762e-4,-6.8286e-4 4.3143e-4,-6.9714e-4 4.2857e-4,-6.9381e-4 4.3286e-4,-7.0333e-4 4.4333e-4,-7.0238e-4 4.3762e-4,-7e-4 4.4571e-4,-6.9381e-4 4.4572e-4,-6.8715e-4 4.4523e-4,-6.7666e-4 4.4286e-4,-6.7191e-4 4.4048e-4,-6.5667e-4 4.3571e-4,-6.3238e-4 4.3905e-4,-6.2714e-4 4.2524e-4,-5.981e-4 4.2619e-4,-5.8142e-4 4.2571e-4,-5.5477e-4 4.1714e-4,-5.2571e-4 4.0715e-4,-5.0143e-4 4.0381e-4,-4.7476e-4 3.9952e-4,-4.4619e-4 3.9429e-4,-4.1572e-4 0.002687,0.002687 -3.0572e-4,3.1096e-4 -3.2523e-4,3.5762e-4 -3.4477e-4,4.0047e-4 -3.6238e-4,4.4238e-4 -3.7238e-4,4.8095e-4 -3.8095e-4,5.1e-4 -3.9667e-4,5.3667e-4 -4.1095e-4,5.6857e-4 -4.0857e-4,5.8334e-4 -4.2143e-4,6.1714e-4 -4.2524e-4,6.2714e-4 -4.2857e-4,6.4238e-4 -4.3e-4,6.6143e-4 -4.3143e-4,6.7191e-4 -4.3047e-4,6.7952e-4 -4.3762e-4,6.8476e-4 -4.281e-4,6.881e-4 -4.3285e-4,6.8809e-4 -4.2858e-4,6.9381e-4 -4.1714e-4,6.8286e-4 -4.1762e-4,6.8286e-4 -4.1143e-4,6.7428e-4 -4.0333e-4,6.6286e-4 -3.9476e-4,6.4905e-4 -3.8524e-4,6.3285e-4 -3.7381e-4,6.1477e-4 -3.6286e-4,5.9381e-4 -3.4952e-4,5.7762e-4 -3.4333e-4,5.4476e-4 -3.2191e-4,5.2476e-4 -3.1333e-4,4.9381e-4 -2.9714e-4,4.6857e-4 0,-7.14e-6 z m -0.00319,-0.002033 0,-7.14e-6 4.4572e-4,-6.9333e-4 -4.4572e-4,7.0047e-4 z m -0.003688,0.0165814 -0.002078,-0.003176 -7.2714e-4,9.0524e-4 1.143e-5,-3.667e-5 3.381e-5,-8.714e-5 5.524e-5,-1.4143e-4 7.571e-5,-1.9238e-4 9.476e-5,-2.4047e-4 1.1286e-4,-2.9286e-4 1.3762e-4,-3.2714e-4 1.4667e-4,-3.7286e-4 1.6143e-4,-4.0143e-4 1.7523e-4,-4.4143e-4 1.9572e-4,-4.6333e-4 2.0047e-4,-4.9715e-4 2.1143e-4,-5.1285e-4 2.2143e-4,-5.3953e-4 2.381e-4,-5.5762e-4 2.3809e-4,-5.7047e-4 2.4524e-4,-5.7429e-4 2.5762e-4,-5.8952e-4 2.5571e-4,-5.9333e-4 2.6667e-4,-5.9524e-4 2.6191e-4,-6.0095e-4 2.7142e-4,-5.8858e-4 2.6429e-4,-5.8047e-4 2.7095e-4,-5.7762e-4 2.7e-4,-5.6286e-4 2.6667e-4,-5.4571e-4 2.6381e-4,-5.3286e-4 2.6667e-4,-5.0905e-4 2.6095e-4,-4.8285e-4 2.5428e-4,-4.6048e-4 2.5429e-4,-4.3476e-4 2.5286e-4,-4.0714e-4 0.00319,0.002033 -1.9286e-4,3.1761e-4 -2.0952e-4,3.6048e-4 -2.2477e-4,4.0143e-4 -2.3142e-4,4.3809e-4 -2.3715e-4,4.6524e-4 -2.4857e-4,4.881e-4 -2.5238e-4,5.1619e-4 -2.5476e-4,5.3333e-4 -2.5667e-4,5.4714e-4 -2.6428e-4,5.6619e-4 -2.5619e-4,5.7334e-4 -2.6191e-4,5.7143e-4 -2.5143e-4,5.8e-4 -2.5571e-4,5.7904e-4 -2.4334e-4,5.7429e-4 -2.4523e-4,5.7429e-4 -2.381e-4,5.5619e-4 -2.2286e-4,5.4238e-4 -2.2142e-4,5.2523e-4 -2.1143e-4,5.1286e-4 -2.0048e-4,4.8191e-4 -1.8143e-4,4.6333e-4 -1.7524e-4,4.2619e-4 -1.6143e-4,4.0143e-4 -1.4666e-4,3.5857e-4 -1.2238e-4,3.2714e-4 -1.1286e-4,2.7762e-4 -9.476e-5,2.4048e-4 -7.572e-5,1.9238e-4 -5.524e-5,1.4143e-4 -3.38e-5,8.714e-5 -1.143e-5,2.238e-5 -7.2715e-4,9.0524e-4 z m 7.2715e-4,-9.0523e-4 -2.2238e-4,5.7476e-4 -5.0477e-4,3.3047e-4 7.2715e-4,-9.0523e-4 z m -0.0231629,0.0170624 -0.002464,-0.002879 -1.1143e-4,9.619e-5 4.9762e-4,-4.7191e-4 5.6619e-4,-5.0571e-4 6.2095e-4,-5.3572e-4 6.7809e-4,-5.5524e-4 7.3619e-4,-5.8571e-4 7.8143e-4,-6.1286e-4 8.2715e-4,-6.3571e-4 8.6809e-4,-6.481e-4 8.9572e-4,-6.6381e-4 9.2381e-4,-6.7714e-4 9.4666e-4,-6.7809e-4 9.6429e-4,-6.9048e-4 9.7428e-4,-6.9286e-4 9.8e-4,-6.8285e-4 9.7143e-4,-6.8524e-4 9.7143e-4,-6.6857e-4 9.5238e-4,-6.5572e-4 9.4096e-4,-6.4762e-4 9.0904e-4,-6.2e-4 8.8619e-4,-5.9619e-4 8.4191e-4,-5.7714e-4 8.0714e-4,-5.3857e-4 7.5191e-4,-5.0429e-4 6.9762e-4,-4.6666e-4 6.4571e-4,-4.3238e-4 5.719e-4,-3.8e-4 5e-4,-3.3191e-4 4.2286e-4,-2.7905e-4 3.4572e-4,-2.2381e-4 2.4952e-4,-1.7143e-4 1.5381e-4,-9.38e-5 5.286e-5,-4.191e-5 0.002078,0.003176 -5.286e-5,2.667e-5 -1.5381e-4,1.0905e-4 -2.4952e-4,1.5619e-4 -3.3143e-4,2.2381e-4 -4.2286e-4,2.7904e-4 -5e-4,3.3191e-4 -5.7191e-4,3.8e-4 -6.3047e-4,4.1809e-4 -6.9762e-4,4.6667e-4 -7.5191e-4,5.0429e-4 -7.9285e-4,5.3857e-4 -8.4191e-4,5.619e-4 -8.7095e-4,5.9619e-4 -9.0905e-4,6.2e-4 -9.2571e-4,6.3238e-4 -9.5238e-4,6.5572e-4 -9.5715e-4,6.6857e-4 -9.7142e-4,6.7095e-4 -9.6477e-4,6.8286e-4 -9.6e-4,6.7762e-4 -9.4904e-4,6.7619e-4 -9.3143e-4,6.7809e-4 -9.0953e-4,6.6191e-4 -8.8047e-4,6.4952e-4 -8.3857e-4,6.3286e-4 -7.9762e-4,6.0619e-4 -7.5191e-4,5.8333e-4 -6.9143e-4,5.5524e-4 -6.3333e-4,5.2571e-4 -5.6191e-4,4.7667e-4 -4.7666e-4,4.3143e-4 -3.9381e-4,3.8333e-4 -1.1143e-4,9.619e-5 z m 1.1143e-4,-9.62e-5 -4.77e-6,4.77e-6 -1.0666e-4,9.143e-5 1.1143e-4,-9.62e-5 z m -0.0274957,0.0257938 -0.00227,-0.003028 -2.238e-5,1.477e-5 0.001214,-9.5524e-4 0.001198,-9.5857e-4 0.001174,-9.6238e-4 0.00115,-9.7096e-4 0.001126,-9.6285e-4 0.001102,-9.6857e-4 0.001079,-9.581e-4 0.001062,-9.6047e-4 0.001029,-9.4715e-4 0.001013,-9.4619e-4 9.8809e-4,-9.3762e-4 9.5619e-4,-9.1857e-4 9.3857e-4,-9.1381e-4 9.1333e-4,-9e-4 8.881e-4,-8.9143e-4 8.7048e-4,-8.6714e-4 8.3809e-4,-8.4857e-4 8.1238e-4,-8.2905e-4 7.9429e-4,-8.1476e-4 7.6809e-4,-7.9143e-4 7.4286e-4,-7.6714e-4 7.1667e-4,-7.4048e-4 6.9047e-4,-7.1333e-4 6.6476e-4,-6.8381e-4 6.4524e-4,-6.6048e-4 6.1905e-4,-6.2857e-4 5.9286e-4,-5.9476e-4 5.6571e-4,-5.5905e-4 5.4619e-4,-5.2952e-4 5.2667e-4,-4.9953e-4 5.0762e-4,-4.5904e-4 4.8e-4,-4.2524e-4 0.002464,0.002879 -4.2095e-4,3.6619e-4 -4.4762e-4,4.1428e-4 -4.8286e-4,4.5477e-4 -5.1667e-4,5e-4 -5.5047e-4,5.4476e-4 -5.7762e-4,5.7952e-4 -6.0476e-4,6.1333e-4 -6.3e-4,6.4619e-4 -6.6477e-4,6.8381e-4 -6.9047e-4,7.1334e-4 -7.1667e-4,7.4047e-4 -7.4286e-4,7.6715e-4 -7.6809e-4,7.9143e-4 -7.9429e-4,8.1476e-4 -8.2762e-4,8.4333e-4 -8.5238e-4,8.6381e-4 -8.7047e-4,8.8238e-4 -9.0334e-4,8.9143e-4 -9.2857e-4,9.1429e-4 -9.5285e-4,9.2904e-4 -9.8572e-4,9.481e-4 -0.001003,9.519e-4 -0.001027,9.6143e-4 -0.00106,9.7667e-4 -0.001076,9.7571e-4 -0.001108,9.8762e-4 -0.001133,9.8381e-4 -0.001156,9.9238e-4 -0.00118,9.8524e-4 -0.001204,9.9191e-4 -0.001228,9.8905e-4 -0.001259,9.8476e-4 -2.238e-5,1.476e-5 z m 2.238e-5,-1.476e-5 -2.238e-5,1.476e-5 1.0333e-4,-7.761e-5 -8.095e-5,6.285e-5 z m -0.0160171,0.008357 -0.002227,-0.003072 3.714e-5,-2.19e-5 4.5619e-4,-3.1191e-4 4.8095e-4,-3.0571e-4 4.9762e-4,-2.9952e-4 5.181e-4,-3.0762e-4 5.3047e-4,-2.9381e-4 5.4715e-4,-3.0191e-4 5.6285e-4,-2.9428e-4 5.6857e-4,-2.9429e-4 5.7238e-4,-2.9381e-4 5.8905e-4,-2.9333e-4 5.9572e-4,-2.9143e-4 5.9428e-4,-2.8334e-4 5.9667e-4,-2.8857e-4 5.9095e-4,-2.7952e-4 5.9714e-4,-2.7714e-4 5.8715e-4,-2.7429e-4 5.8238e-4,-2.7857e-4 5.7524e-4,-2.6095e-4 5.6619e-4,-2.6476e-4 5.4809e-4,-2.6096e-4 5.3524e-4,-2.5666e-4 5.2e-4,-2.4477e-4 5.0381e-4,-2.4047e-4 4.7619e-4,-2.4238e-4 4.5619e-4,-2.2191e-4 4.2571e-4,-2.2428e-4 4.0048e-4,-2.1762e-4 3.6571e-4,-1.9667e-4 3.3762e-4,-1.9095e-4 2.8381e-4,-1.8333e-4 2.5095e-4,-1.6143e-4 2.0096e-4,-1.3905e-4 0.00227,0.003028 -3.3429e-4,2.4286e-4 -3.5476e-4,2.3571e-4 -3.8762e-4,2.2809e-4 -3.9667e-4,2.3477e-4 -4.2571e-4,2.4143e-4 -4.4524e-4,2.3285e-4 -4.6952e-4,2.3857e-4 -4.8572e-4,2.5238e-4 -5.0666e-4,2.4239e-4 -5.181e-4,2.5476e-4 -5.3524e-4,2.6e-4 -5.4952e-4,2.5666e-4 -5.6333e-4,2.6096e-4 -5.6619e-4,2.6476e-4 -5.7524e-4,2.7524e-4 -5.8238e-4,2.6428e-4 -5.8715e-4,2.7429e-4 -5.819e-4,2.7714e-4 -5.9095e-4,2.7953e-4 -5.8238e-4,2.7333e-4 -5.7905e-4,2.8333e-4 -5.6619e-4,2.7714e-4 -5.5953e-4,2.781e-4 -5.5714e-4,2.7857e-4 -5.3905e-4,2.8e-4 -5.1809e-4,2.7905e-4 -5.0334e-4,2.7238e-4 -4.8571e-4,2.7857e-4 -4.5905e-4,2.6381e-4 -4.3762e-4,2.7e-4 -4.0666e-4,2.6095e-4 -3.8191e-4,2.5191e-4 3.714e-5,-2.191e-5 z m -0.002227,-0.003072 3.714e-5,-2.19e-5 -1.4619e-4,1.0095e-4 1.0905e-4,-7.905e-5 z m -0.0373076,0.0491505 -0.001692,-0.003384 -8.0143e-4,7.4953e-4 8.0667e-4,-0.001368 8.6714e-4,-0.001423 9.3857e-4,-0.001471 9.919e-4,-0.001508 0.00104,-0.00154 0.0011,-0.001582 0.001149,-0.001605 0.001186,-0.00163 0.001234,-0.00165 0.001263,-0.001666 0.001302,-0.001678 0.001323,-0.001683 0.001356,-0.001685 0.00137,-0.001674 0.001386,-0.001674 0.001406,-0.001661 0.001407,-0.001635 0.00142,-0.001621 0.001413,-0.001593 0.001417,-0.001554 0.001403,-0.001526 0.001399,-0.001484 0.001384,-0.001438 0.001365,-0.001387 0.001343,-0.001331 0.001322,-0.001279 0.001292,-0.001214 0.001258,-0.001143 0.001226,-0.00107 0.001183,-9.9715e-4 0.001151,-9.1333e-4 0.0011,-8.319e-4 0.002227,0.003072 -0.001012,7.5762e-4 -0.001062,8.5333e-4 -0.001124,9.3809e-4 -0.001167,0.001025 -0.001213,0.0011 -0.001247,0.001169 -0.001279,0.001234 -0.001312,0.001302 -0.001336,0.001358 -0.001354,0.001409 -0.00137,0.001454 -0.001388,0.001496 -0.001388,0.00154 -0.001399,0.001564 -0.001389,0.001591 -0.001393,0.001621 -0.001376,0.001631 -0.00137,0.001643 -0.001354,0.00166 -0.001326,0.001655 -0.001309,0.001654 -0.001273,0.001647 -0.001248,0.001636 -0.001204,0.001621 -0.00117,0.0016 -0.001119,0.001575 -0.001071,0.001538 -0.001025,0.00151 -9.6238e-4,0.001463 -8.9381e-4,0.001412 -8.3762e-4,0.001363 -7.619e-4,0.001309 -8.0143e-4,7.4953e-4 z m 8.0143e-4,-7.4952e-4 -2.7905e-4,4.8809e-4 -5.2238e-4,2.6143e-4 8.0143e-4,-7.4952e-4 z m -0.0122829,0.0142424 -0.003354,-0.001751 -1.477e-5,3e-5 3.8286e-4,-7.6048e-4 3.9191e-4,-7.3904e-4 3.9381e-4,-7.181e-4 3.8714e-4,-7.0476e-4 3.9714e-4,-6.7714e-4 3.981e-4,-6.6381e-4 4.0714e-4,-6.3715e-4 4e-4,-6.1714e-4 4.0143e-4,-6.0476e-4 4.0952e-4,-5.8524e-4 4.0286e-4,-5.5952e-4 4.1143e-4,-5.4762e-4 4.1095e-4,-5.3e-4 4.1191e-4,-5.0286e-4 4.1238e-4,-4.9381e-4 4.1238e-4,-4.7476e-4 4.1952e-4,-4.5762e-4 4.1905e-4,-4.4095e-4 4.1952e-4,-4.2286e-4 4.1143e-4,-3.9952e-4 4.1857e-4,-3.8953e-4 4.2524e-4,-3.7428e-4 4.2429e-4,-3.5715e-4 4.1619e-4,-3.3428e-4 4.2286e-4,-3.2619e-4 4.2142e-4,-3.1048e-4 4.2048e-4,-2.9619e-4 4.2619e-4,-2.7286e-4 4.1762e-4,-2.6619e-4 4.2333e-4,-2.4428e-4 4.2191e-4,-2.3e-4 4.1952e-4,-2.1667e-4 0.001692,0.003384 -3.3095e-4,1.7191e-4 -3.3238e-4,1.8523e-4 -3.3476e-4,2.0048e-4 -3.4334e-4,2.0619e-4 -3.3762e-4,2.2905e-4 -3.4619e-4,2.3619e-4 -3.4714e-4,2.5143e-4 -3.4857e-4,2.6714e-4 -3.5619e-4,2.8952e-4 -3.5095e-4,2.981e-4 -3.5095e-4,3.1428e-4 -3.5857e-4,3.3048e-4 -3.6762e-4,3.5476e-4 -3.5953e-4,3.6381e-4 -3.6e-4,3.8095e-4 -3.6047e-4,3.9858e-4 -3.6762e-4,4.1571e-4 -3.6762e-4,4.3381e-4 -3.6714e-4,4.5905e-4 -3.6715e-4,4.7e-4 -3.6666e-4,4.8857e-4 -3.7334e-4,5.1476e-4 -3.6476e-4,5.2619e-4 -3.719e-4,5.4571e-4 -3.7048e-4,5.7239e-4 -3.6238e-4,5.9238e-4 -3.6857e-4,6.0476e-4 -3.6667e-4,6.3238e-4 -3.7286e-4,6.4571e-4 -3.6428e-4,6.7334e-4 -3.6238e-4,6.9428e-4 -3.6762e-4,7.1572e-4 -1.476e-5,3e-5 z m 1.476e-5,-3e-5 -1.476e-5,3e-5 -5.24e-6,1.048e-5 2e-5,-4.048e-5 z m -0.0149005,0.201795 -0.003532,0.001366 7.62e-6,2.19e-5 -0.002867,-0.007522 -0.00257,-0.007474 -0.002276,-0.007423 -0.002003,-0.007376 -0.001724,-0.007313 -0.001454,-0.007255 -0.001207,-0.007195 -9.5238e-4,-0.00714 -7.1429e-4,-0.007067 -4.7714e-4,-0.007 -2.5476e-4,-0.006931 -4.143e-5,-0.006852 1.6428e-4,-0.006786 3.6143e-4,-0.006702 5.581e-4,-0.006624 7.3857e-4,-0.00655 9.1143e-4,-0.00646 0.001076,-0.006368 0.001231,-0.006288 0.00138,-0.006191 0.001527,-0.006106 0.001658,-0.005997 0.001774,-0.005908 0.001896,-0.00581 0.002003,-0.005701 0.002101,-0.005598 0.002192,-0.005493 0.002274,-0.005377 0.002349,-0.005275 0.002413,-0.005155 0.00247,-0.005041 0.00252,-0.004925 0.003354,0.001751 -0.00249,0.004865 -0.002441,0.004982 -0.002384,0.005096 -0.002318,0.005201 -0.002244,0.005318 -0.002162,0.005419 -0.002072,0.005524 -0.001973,0.005627 -0.001867,0.00572 -0.001759,0.00582 -0.001628,0.005923 -0.001497,0.006002 -0.001365,0.006101 -0.001217,0.006184 -0.00106,0.006279 -8.9619e-4,0.006356 -7.2429e-4,0.006431 -5.4286e-4,0.00652 -3.6142e-4,0.006598 -1.6429e-4,0.006667 4.143e-5,0.006748 2.5476e-4,0.006812 4.7714e-4,0.006882 6.9905e-4,0.006948 9.381e-4,0.007006 0.001177,0.007076 0.00144,0.007137 0.001695,0.007194 0.001959,0.007243 0.002246,0.007304 0.002526,0.007355 0.002822,0.007404 7.61e-6,2.191e-5 z m -7.62e-6,-2.191e-5 7.62e-6,2.191e-5 -3.381e-5,-8.81e-5 2.619e-5,6.619e-5 z m -0.003525,0.001388 0.001766,-6.8285e-4 0,0 0,0 0,0 -0.001766,6.8285e-4 z m 0.003525,-0.001388 7.62e-6,2.191e-5 -3.381e-5,-8.81e-5 2.619e-5,6.619e-5 z"
         class="fil6"
         id="_46312648" />
    </g>
    <g
       style="fill:#000000;fill-opacity:1"
       id="g3892"
       transform="matrix(0,1,-1,0,840.06913,510.20388)">
      <path
         id="path2911"
         style="fill:#000000;fill-opacity:1;stroke:#231f20;stroke-width:0.96477377;stroke-linecap:butt;stroke-linejoin:round;stroke-miterlimit:10;stroke-opacity:1;stroke-dasharray:none"
         d="m 369.49312,529.62906 11.01376,0 0,5.46625 -11.01376,0 0,-5.46625" />
      <path
         id="path2913"
         style="fill:#000000;fill-opacity:1;stroke:#231f20;stroke-width:0.96477377;stroke-linecap:butt;stroke-linejoin:round;stroke-miterlimit:10;stroke-opacity:1;stroke-dasharray:none"
         d="m 373.14662,535.01884 -3.6975,5.4675 11.01375,0 -3.6975,-5.4675" />
    </g>
    <g
       style="fill:#000000;fill-opacity:1"
       transform="matrix(0,1,-1,0,840.06913,496.17399)"
       id="g4485">
      <path
         d="m 369.49312,529.62906 11.01376,0 0,5.46625 -11.01376,0 0,-5.46625"
         style="fill:#000000;fill-opacity:1;stroke:#231f20;stroke-width:0.96477377;stroke-linecap:butt;stroke-linejoin:round;stroke-miterlimit:10;stroke-opacity:1;stroke-dasharray:none"
         id="path4487" />
      <path
         d="m 373.14662,535.01884 -3.6975,5.4675 11.01375,0 -3.6975,-5.4675"
         style="fill:#000000;fill-opacity:1;stroke:#231f20;stroke-width:0.96477377;stroke-linecap:butt;stroke-linejoin:round;stroke-miterlimit:10;stroke-opacity:1;stroke-dasharray:none"
         id="path4489" />
    </g>
    <g
       style="fill:#000000;fill-opacity:1"
       inkscape:transform-center-y="6.0112669"
       id="g4491"
       transform="matrix(0,1,-1,0,840.06913,482.1441)">
      <path
         id="path4493"
         style="fill:#000000;fill-opacity:1;stroke:#231f20;stroke-width:0.96477377;stroke-linecap:butt;stroke-linejoin:round;stroke-miterlimit:10;stroke-opacity:1;stroke-dasharray:none"
         d="m 369.49312,529.62906 11.01376,0 0,5.46625 -11.01376,0 0,-5.46625" />
      <path
         id="path4495"
         style="fill:#000000;fill-opacity:1;stroke:#231f20;stroke-width:0.96477377;stroke-linecap:butt;stroke-linejoin:round;stroke-miterlimit:10;stroke-opacity:1;stroke-dasharray:none"
         d="m 373.14662,535.01884 -3.6975,5.4675 11.01375,0 -3.6975,-5.4675" />
    </g>
    <g
       transform="matrix(0,1,-1,0,840.06913,524.23379)"
       id="g4497">
      <path
         d="m 369.49312,529.62906 11.01376,0 0,5.46625 -11.01376,0 0,-5.46625"
         style="fill:none;stroke:#231f20;stroke-width:0.96477377;stroke-linecap:butt;stroke-linejoin:round;stroke-miterlimit:10;stroke-opacity:1;stroke-dasharray:none"
         id="path4499" />
      <path
         d="m 373.14662,535.01884 -3.6975,5.4675 11.01375,0 -3.6975,-5.4675"
         style="fill:none;stroke:#231f20;stroke-width:0.96477377;stroke-linecap:butt;stroke-linejoin:round;stroke-miterlimit:10;stroke-opacity:1;stroke-dasharray:none"
         id="path4501" />
    </g>
    <g
       style="fill:#000000;fill-opacity:1"
       id="g4503"
       transform="matrix(0,1,-1,0,840.06913,538.26368)">
      <path
         id="path4505"
         style="fill:#000000;fill-opacity:1;stroke:#231f20;stroke-width:0.96477377;stroke-linecap:butt;stroke-linejoin:round;stroke-miterlimit:10;stroke-opacity:1;stroke-dasharray:none"
         d="m 369.49312,529.62906 11.01376,0 0,5.46625 -11.01376,0 0,-5.46625" />
      <path
         id="path4507"
         style="fill:#000000;fill-opacity:1;stroke:#231f20;stroke-width:0.96477377;stroke-linecap:butt;stroke-linejoin:round;stroke-miterlimit:10;stroke-opacity:1;stroke-dasharray:none"
         d="m 373.14662,535.01884 -3.6975,5.4675 11.01375,0 -3.6975,-5.4675" />
    </g>
    <g
       style="fill:#000000;fill-opacity:1"
       transform="matrix(0,1,-1,0,840.06913,552.29358)"
       id="g4509">
      <path
         d="m 369.49312,529.62906 11.01376,0 0,5.46625 -11.01376,0 0,-5.46625"
         style="fill:#000000;fill-opacity:1;stroke:#231f20;stroke-width:0.96477377;stroke-linecap:butt;stroke-linejoin:round;stroke-miterlimit:10;stroke-opacity:1;stroke-dasharray:none"
         id="path4511" />
      <path
         d="m 373.14662,535.01884 -3.6975,5.4675 11.01375,0 -3.6975,-5.4675"
         style="fill:#000000;fill-opacity:1;stroke:#231f20;stroke-width:0.96477377;stroke-linecap:butt;stroke-linejoin:round;stroke-miterlimit:10;stroke-opacity:1;stroke-dasharray:none"
         id="path4513" />
    </g>
    <g
       id="g4515"
       transform="matrix(0,1,-1,0,840.06913,566.32348)">
      <path
         id="path4517"
         style="fill:none;stroke:#231f20;stroke-width:0.96477377;stroke-linecap:butt;stroke-linejoin:round;stroke-miterlimit:10;stroke-opacity:1;stroke-dasharray:none"
         d="m 369.49312,529.62906 11.01376,0 0,5.46625 -11.01376,0 0,-5.46625" />
      <path
         id="path4519"
         style="fill:none;stroke:#231f20;stroke-width:0.96477377;stroke-linecap:butt;stroke-linejoin:round;stroke-miterlimit:10;stroke-opacity:1;stroke-dasharray:none"
         d="m 373.14662,535.01884 -3.6975,5.4675 11.01375,0 -3.6975,-5.4675" />
    </g>
    <g
       transform="matrix(0,1,-1,0,840.06913,580.35337)"
       id="g4521">
      <path
         d="m 369.49312,529.62906 11.01376,0 0,5.46625 -11.01376,0 0,-5.46625"
         style="fill:none;stroke:#231f20;stroke-width:0.96477377;stroke-linecap:butt;stroke-linejoin:round;stroke-miterlimit:10;stroke-opacity:1;stroke-dasharray:none"
         id="path4523" />
      <path
         d="m 373.14662,535.01884 -3.6975,5.4675 11.01375,0 -3.6975,-5.4675"
         style="fill:none;stroke:#231f20;stroke-width:0.96477377;stroke-linecap:butt;stroke-linejoin:round;stroke-miterlimit:10;stroke-opacity:1;stroke-dasharray:none"
         id="path4525" />
    </g>
    <g
       style="fill:#000000;fill-opacity:1"
       id="g4527"
       transform="matrix(0,1,-1,0,840.06913,594.38326)">
      <path
         id="path4529"
         style="fill:#000000;fill-opacity:1;stroke:#231f20;stroke-width:0.96477377;stroke-linecap:butt;stroke-linejoin:round;stroke-miterlimit:10;stroke-opacity:1;stroke-dasharray:none"
         d="m 369.49312,529.62906 11.01376,0 0,5.46625 -11.01376,0 0,-5.46625" />
      <path
         id="path4531"
         style="fill:#000000;fill-opacity:1;stroke:#231f20;stroke-width:0.96477377;stroke-linecap:butt;stroke-linejoin:round;stroke-miterlimit:10;stroke-opacity:1;stroke-dasharray:none"
         d="m 373.14662,535.01884 -3.6975,5.4675 11.01375,0 -3.6975,-5.4675" />
    </g>
    <g
       transform="matrix(0,1,-1,0,840.06913,608.41317)"
       id="g4533">
      <path
         d="m 369.49312,529.62906 11.01376,0 0,5.46625 -11.01376,0 0,-5.46625"
         style="fill:none;stroke:#231f20;stroke-width:0.96477377;stroke-linecap:butt;stroke-linejoin:round;stroke-miterlimit:10;stroke-opacity:1;stroke-dasharray:none"
         id="path4535" />
      <path
         d="m 373.14662,535.01884 -3.6975,5.4675 11.01375,0 -3.6975,-5.4675"
         style="fill:none;stroke:#231f20;stroke-width:0.96477377;stroke-linecap:butt;stroke-linejoin:round;stroke-miterlimit:10;stroke-opacity:1;stroke-dasharray:none"
         id="path4537" />
    </g>
    <g
       style="fill:#000000;fill-opacity:1"
       id="g4539"
       transform="matrix(0,1,-1,0,840.06913,622.44306)">
      <path
         id="path4541"
         style="fill:#000000;fill-opacity:1;stroke:#231f20;stroke-width:0.96477377;stroke-linecap:butt;stroke-linejoin:round;stroke-miterlimit:10;stroke-opacity:1;stroke-dasharray:none"
         d="m 369.49312,529.62906 11.01376,0 0,5.46625 -11.01376,0 0,-5.46625" />
      <path
         id="path4543"
         style="fill:#000000;fill-opacity:1;stroke:#231f20;stroke-width:0.96477377;stroke-linecap:butt;stroke-linejoin:round;stroke-miterlimit:10;stroke-opacity:1;stroke-dasharray:none"
         d="m 373.14662,535.01884 -3.6975,5.4675 11.01375,0 -3.6975,-5.4675" />
    </g>
    <g
       style="fill:#000000;fill-opacity:1"
       transform="matrix(0,1,-1,0,840.06913,636.47296)"
       id="g4545">
      <path
         d="m 369.49312,529.62906 11.01376,0 0,5.46625 -11.01376,0 0,-5.46625"
         style="fill:#000000;fill-opacity:1;stroke:#231f20;stroke-width:0.96477377;stroke-linecap:butt;stroke-linejoin:round;stroke-miterlimit:10;stroke-opacity:1;stroke-dasharray:none"
         id="path4547" />
      <path
         d="m 373.14662,535.01884 -3.6975,5.4675 11.01375,0 -3.6975,-5.4675"
         style="fill:#000000;fill-opacity:1;stroke:#231f20;stroke-width:0.96477377;stroke-linecap:butt;stroke-linejoin:round;stroke-miterlimit:10;stroke-opacity:1;stroke-dasharray:none"
         id="path4549" />
    </g>
    <g
       transform="matrix(0,1,-1,0,840.06913,468.1142)"
       id="g4551"
       inkscape:transform-center-y="6.0112669">
      <path
         d="m 369.49312,529.62906 11.01376,0 0,5.46625 -11.01376,0 0,-5.46625"
         style="fill:none;stroke:#231f20;stroke-width:0.96477377;stroke-linecap:butt;stroke-linejoin:round;stroke-miterlimit:10;stroke-opacity:1;stroke-dasharray:none"
         id="path4553" />
      <path
         d="m 373.14662,535.01884 -3.6975,5.4675 11.01375,0 -3.6975,-5.4675"
         style="fill:none;stroke:#231f20;stroke-width:0.96477377;stroke-linecap:butt;stroke-linejoin:round;stroke-miterlimit:10;stroke-opacity:1;stroke-dasharray:none"
         id="path4555" />
    </g>
    <g
       style="fill:#000000;fill-opacity:1"
       inkscape:transform-center-y="6.0112669"
       id="g4557"
       transform="matrix(0,1,-1,0,840.06913,454.0843)">
      <path
         id="path4559"
         style="fill:#000000;fill-opacity:1;stroke:#231f20;stroke-width:0.96477377;stroke-linecap:butt;stroke-linejoin:round;stroke-miterlimit:10;stroke-opacity:1;stroke-dasharray:none"
         d="m 369.49312,529.62906 11.01376,0 0,5.46625 -11.01376,0 0,-5.46625" />
      <path
         id="path4561"
         style="fill:#000000;fill-opacity:1;stroke:#231f20;stroke-width:0.96477377;stroke-linecap:butt;stroke-linejoin:round;stroke-miterlimit:10;stroke-opacity:1;stroke-dasharray:none"
         d="m 373.14662,535.01884 -3.6975,5.4675 11.01375,0 -3.6975,-5.4675" />
    </g>
    <g
       transform="matrix(0,1,-1,0,840.06913,440.05441)"
       id="g4563"
       inkscape:transform-center-y="6.0112669">
      <path
         d="m 369.49312,529.62906 11.01376,0 0,5.46625 -11.01376,0 0,-5.46625"
         style="fill:none;stroke:#231f20;stroke-width:0.96477377;stroke-linecap:butt;stroke-linejoin:round;stroke-miterlimit:10;stroke-opacity:1;stroke-dasharray:none"
         id="path4565" />
      <path
         d="m 373.14662,535.01884 -3.6975,5.4675 11.01375,0 -3.6975,-5.4675"
         style="fill:none;stroke:#231f20;stroke-width:0.96477377;stroke-linecap:butt;stroke-linejoin:round;stroke-miterlimit:10;stroke-opacity:1;stroke-dasharray:none"
         id="path4567" />
    </g>
    <g
       inkscape:transform-center-y="6.0112669"
       id="g4569"
       transform="matrix(0,1,-1,0,840.06913,426.0245)">
      <path
         id="path4571"
         style="fill:none;stroke:#231f20;stroke-width:0.96477377;stroke-linecap:butt;stroke-linejoin:round;stroke-miterlimit:10;stroke-opacity:1;stroke-dasharray:none"
         d="m 369.49312,529.62906 11.01376,0 0,5.46625 -11.01376,0 0,-5.46625" />
      <path
         id="path4573"
         style="fill:none;stroke:#231f20;stroke-width:0.96477377;stroke-linecap:butt;stroke-linejoin:round;stroke-miterlimit:10;stroke-opacity:1;stroke-dasharray:none"
         d="m 373.14662,535.01884 -3.6975,5.4675 11.01375,0 -3.6975,-5.4675" />
    </g>
    <g
       style="fill:#000000;fill-opacity:1"
       transform="matrix(0,1,-1,0,840.06913,411.99461)"
       id="g4575"
       inkscape:transform-center-y="6.0112669">
      <path
         d="m 369.49312,529.62906 11.01376,0 0,5.46625 -11.01376,0 0,-5.46625"
         style="fill:#000000;fill-opacity:1;stroke:#231f20;stroke-width:0.96477377;stroke-linecap:butt;stroke-linejoin:round;stroke-miterlimit:10;stroke-opacity:1;stroke-dasharray:none"
         id="path4577" />
      <path
         d="m 373.14662,535.01884 -3.6975,5.4675 11.01375,0 -3.6975,-5.4675"
         style="fill:#000000;fill-opacity:1;stroke:#231f20;stroke-width:0.96477377;stroke-linecap:butt;stroke-linejoin:round;stroke-miterlimit:10;stroke-opacity:1;stroke-dasharray:none"
         id="path4579" />
    </g>
    <g
       inkscape:transform-center-y="6.0112669"
       id="g4581"
       transform="matrix(0,1,-1,0,840.06913,397.96471)">
      <path
         id="path4583"
         style="fill:none;stroke:#231f20;stroke-width:0.96477377;stroke-linecap:butt;stroke-linejoin:round;stroke-miterlimit:10;stroke-opacity:1;stroke-dasharray:none"
         d="m 369.49312,529.62906 11.01376,0 0,5.46625 -11.01376,0 0,-5.46625" />
      <path
         id="path4585"
         style="fill:none;stroke:#231f20;stroke-width:0.96477377;stroke-linecap:butt;stroke-linejoin:round;stroke-miterlimit:10;stroke-opacity:1;stroke-dasharray:none"
         d="m 373.14662,535.01884 -3.6975,5.4675 11.01375,0 -3.6975,-5.4675" />
    </g>
    <g
       style="fill:#000000;fill-opacity:1"
       transform="matrix(0,1,-1,0,840.06913,383.93481)"
       id="g4587"
       inkscape:transform-center-y="6.0112669">
      <path
         d="m 369.49312,529.62906 11.01376,0 0,5.46625 -11.01376,0 0,-5.46625"
         style="fill:#000000;fill-opacity:1;stroke:#231f20;stroke-width:0.96477377;stroke-linecap:butt;stroke-linejoin:round;stroke-miterlimit:10;stroke-opacity:1;stroke-dasharray:none"
         id="path4589" />
      <path
         d="m 373.14662,535.01884 -3.6975,5.4675 11.01375,0 -3.6975,-5.4675"
         style="fill:#000000;fill-opacity:1;stroke:#231f20;stroke-width:0.96477377;stroke-linecap:butt;stroke-linejoin:round;stroke-miterlimit:10;stroke-opacity:1;stroke-dasharray:none"
         id="path4591" />
    </g>
    <path
       id="path4593"
       d="m 154.53438,915.98899 41.3315,0"
       style="fill:none;stroke:#000000;stroke-width:1.20742726px;stroke-linecap:butt;stroke-linejoin:miter;stroke-opacity:1;marker-start:url(#Arrow1Mstart)" />
    <path
       style="fill:none;stroke:#000000;stroke-width:1.20742726px;stroke-linecap:butt;stroke-linejoin:miter;stroke-opacity:1;marker-start:url(#Arrow1Mstart)"
       d="m 289.40957,915.98899 -41.3315,0"
       id="path5045" />
    <g
       id="g5129"
       transform="matrix(0.37273495,0,0,0.37273495,87.703049,788.96185)">
      <g
         word-spacing="normal"
         letter-spacing="normal"
         font-size-adjust="none"
         font-stretch="normal"
         font-weight="normal"
         font-variant="normal"
         font-style="normal"
         fill-rule="even-odd"
         stroke-miterlimit="10.433"
         xml:space="preserve"
         transform="matrix(1.0629921,0,0,-1.0629921,-186.02362,789.27165)"
         id="content"
         style="font-style:normal;font-variant:normal;font-weight:normal;font-stretch:normal;letter-spacing:normal;word-spacing:normal;text-anchor:start;fill:none;stroke:#000000;stroke-linecap:butt;stroke-linejoin:miter;stroke-miterlimit:10.43299961;stroke-opacity:1;stroke-dasharray:none;stroke-dashoffset:0"><path
           id="path5132"
           d="m 470.64,437.88 0,0.05 0,0.06 0,0.05 0,0.05 0,0.05 0,0.05 0,0.04 0,0.05 0,0.04 0,0.04 0,0.04 0,0.04 0,0.04 -0.01,0.04 0,0.03 0,0.04 -0.01,0.03 0,0.03 -0.01,0.06 -0.01,0.05 -0.02,0.05 -0.01,0.05 -0.02,0.04 -0.02,0.04 -0.03,0.04 -0.03,0.03 -0.03,0.02 -0.03,0.03 -0.04,0.02 -0.05,0.02 -0.02,0.01 -0.03,0.01 -0.02,0 -0.03,0.01 -0.03,0.01 -0.03,0 -0.03,0.01 -0.03,0 -0.03,0.01 -0.04,0 -0.04,0 -0.03,0 -0.04,0.01 -0.04,0 -0.04,0 -0.05,0 -0.04,0 -0.05,0 -0.05,0.01 -0.05,0 -0.05,0 -0.05,0 c -3.09,-3.19 -7.47,-3.19 -9.07,-3.19 v -1.55 c 1,0 3.94,0 6.53,1.3 v -25.81 c 0,-1.79 -0.15,-2.39 -4.63,-2.39 h -1.6 V 406 h 16.14 v 1.54 h -1.59 c -4.49,0 -4.64,0.55 -4.64,2.39 z"
           style="fill:#000000;stroke-width:0" /><path
           id="path5134"
           d="m 489.56,408.64 0,0.14 -0.01,0.13 -0.02,0.13 -0.02,0.13 -0.03,0.13 -0.04,0.12 -0.04,0.12 -0.05,0.12 -0.05,0.12 -0.06,0.11 -0.06,0.11 -0.07,0.11 -0.08,0.1 -0.07,0.1 -0.09,0.1 -0.09,0.09 -0.09,0.09 -0.09,0.08 -0.1,0.08 -0.11,0.08 -0.1,0.07 -0.11,0.06 -0.12,0.06 -0.11,0.05 -0.12,0.05 -0.13,0.04 -0.12,0.04 -0.13,0.03 -0.13,0.02 -0.13,0.02 -0.13,0.01 -0.13,0 c -1.45,0 -2.64,-1.19 -2.64,-2.64 0,-1.44 1.19,-2.64 2.64,-2.64 1.44,0 2.63,1.2 2.63,2.64 z"
           style="fill:#000000;stroke-width:0" /><path
           id="path5136"
           d="m 516.37,416.01 -0.01,0.55 -0.04,0.55 -0.06,0.54 -0.08,0.53 -0.1,0.53 -0.13,0.51 -0.14,0.5 -0.17,0.5 -0.18,0.48 -0.2,0.47 -0.23,0.46 -0.24,0.44 -0.26,0.43 -0.28,0.41 -0.29,0.4 -0.31,0.38 -0.32,0.36 -0.34,0.35 -0.36,0.33 -0.37,0.3 -0.38,0.29 -0.4,0.27 -0.41,0.24 -0.42,0.22 -0.43,0.2 -0.45,0.17 -0.45,0.15 -0.47,0.13 -0.47,0.09 -0.49,0.07 -0.49,0.05 -0.5,0.01 c -2.39,0 -4.53,-0.8 -6.33,-2.54 v 9.71 c 1,-0.29 2.64,-0.64 4.24,-0.64 6.13,0 9.61,4.53 9.61,5.18 0,0.3 -0.15,0.55 -0.49,0.55 -0.05,0 -0.15,0 -0.4,-0.15 -1,-0.45 -3.44,-1.45 -6.78,-1.45 -1.99,0 -4.28,0.35 -6.62,1.4 -0.4,0.14 -0.5,0.14 -0.6,0.14 -0.5,0 -0.5,-0.39 -0.5,-1.19 v -14.75 c 0,-0.89 0,-1.29 0.7,-1.29 0.35,0 0.45,0.15 0.65,0.45 0.55,0.8 2.39,3.48 6.42,3.48 2.59,0 3.84,-2.28 4.24,-3.18 0.79,-1.85 0.89,-3.79 0.89,-6.28 0,-1.74 0,-4.73 -1.19,-6.82 -1.2,-1.95 -3.04,-3.24 -5.33,-3.24 -3.64,0 -6.48,2.64 -7.32,5.58 0.14,-0.05 0.29,-0.1 0.84,-0.1 1.64,0 2.49,1.24 2.49,2.44 0,1.19 -0.85,2.44 -2.49,2.44 -0.7,0 -2.44,-0.35 -2.44,-2.64 0,-4.29 3.44,-9.12 9.02,-9.12 5.78,0 10.86,4.79 10.86,11.11 z"
           style="fill:#000000;stroke-width:0" /><path
           id="path5138"
           d="m 533.48,423.14 v -13.35 c 0,-2.25 -0.55,-2.25 -3.89,-2.25 V 406 h 11.21 v 1.54 c -3.33,0 -3.88,0 -3.88,2.25 v 9.16 c 0,5.18 3.53,7.97 6.72,7.97 3.14,0 3.69,-2.69 3.69,-5.53 v -11.6 c 0,-2.25 -0.55,-2.25 -3.89,-2.25 V 406 h 11.21 v 1.54 c -3.34,0 -3.88,0 -3.88,2.25 v 9.16 c 0,5.18 3.53,7.97 6.72,7.97 3.14,0 3.69,-2.69 3.69,-5.53 v -11.6 c 0,-2.25 -0.55,-2.25 -3.89,-2.25 V 406 h 11.21 v 1.54 c -2.59,0 -3.84,0 -3.89,1.5 v 9.51 c 0,4.29 0,5.83 -1.54,7.63 -0.7,0.84 -2.34,1.84 -5.23,1.84 -4.19,0 -6.38,-2.99 -7.23,-4.88 -0.69,4.33 -4.38,4.88 -6.62,4.88 -3.64,0 -5.98,-2.14 -7.37,-5.23 v 5.23 l -7.03,-0.55 v -1.54 c 3.49,0 3.89,-0.35 3.89,-2.79 z"
           style="fill:#000000;stroke-width:0" /></g>    </g>
    <path
       style="fill:none;stroke:#000000;stroke-width:5;stroke-linecap:butt;stroke-linejoin:miter;stroke-miterlimit:4;stroke-opacity:1;stroke-dasharray:none"
       d="m 143.69294,900.57647 15.71428,0"
       id="path5226" />
    <path
       id="path5228"
       d="m 143.69294,870.93361 15.71428,0"
       style="fill:none;stroke:#000000;stroke-width:5;stroke-linecap:butt;stroke-linejoin:miter;stroke-miterlimit:4;stroke-opacity:1;stroke-dasharray:none" />
    <path
       style="fill:none;stroke:#000000;stroke-width:3;stroke-linecap:butt;stroke-linejoin:miter;stroke-miterlimit:4;stroke-opacity:1;stroke-dasharray:none"
       d="m 151.42857,871.29075 0,28.21429"
       id="path5230" />
    <rect
       style="fill:#ffffff;fill-opacity:1;stroke:#000000;stroke-width:0.5;stroke-linecap:butt;stroke-linejoin:miter;stroke-miterlimit:4;stroke-opacity:1;stroke-dasharray:none;stroke-dashoffset:0"
       id="rect5236"
       width="13.637051"
       height="2.5253999"
       x="145.71449"
       y="884.42432" />
  </g>
</svg>
