<?xml version="1.0" encoding="UTF-8" standalone="no"?>
<!-- Created with Inkscape (http://www.inkscape.org/) -->

<svg
   xmlns:dc="http://purl.org/dc/elements/1.1/"
   xmlns:cc="http://creativecommons.org/ns#"
   xmlns:rdf="http://www.w3.org/1999/02/22-rdf-syntax-ns#"
   xmlns:svg="http://www.w3.org/2000/svg"
   xmlns="http://www.w3.org/2000/svg"
   xmlns:sodipodi="http://sodipodi.sourceforge.net/DTD/sodipodi-0.dtd"
   xmlns:inkscape="http://www.inkscape.org/namespaces/inkscape"
   id="svg7310"
   version="1.1"
   inkscape:version="0.48.4 r9939"
   width="327.46112"
   height="144"
   xml:space="preserve"
   sodipodi:docname="itd_ild.svg"><metadata
     id="metadata7316"><rdf:RDF><cc:Work
         rdf:about=""><dc:format>image/svg+xml</dc:format><dc:type
           rdf:resource="http://purl.org/dc/dcmitype/StillImage" /><dc:title /></cc:Work></rdf:RDF></metadata><defs
     id="defs7314"><clipPath
       clipPathUnits="userSpaceOnUse"
       id="clipPath7350"><path
         d="m 0,7 2575,0 0,1411 L 0,1418 0,7 z"
         id="path7352"
         inkscape:connector-curvature="0" /></clipPath><clipPath
       clipPathUnits="userSpaceOnUse"
       id="clipPath7362"><path
         d="m 0,7.92969 2574.77,0 0,1410.00001 -2574.77,0 L 0,7.92969 z"
         id="path7364"
         inkscape:connector-curvature="0" /></clipPath><clipPath
       clipPathUnits="userSpaceOnUse"
       id="clipPath7372"><path
         d="m 0,7 2575,0 0,1411 L 0,1418 0,7 z"
         id="path7374"
         inkscape:connector-curvature="0" /></clipPath><clipPath
       clipPathUnits="userSpaceOnUse"
       id="clipPath7384"><path
         d="m 0,7.92969 2574.77,0 0,1410.00001 -2574.77,0 L 0,7.92969 z"
         id="path7386"
         inkscape:connector-curvature="0" /></clipPath><clipPath
       clipPathUnits="userSpaceOnUse"
       id="clipPath7498"><path
         d="m 0,7 2575,0 0,1411 L 0,1418 0,7 z"
         id="path7500"
         inkscape:connector-curvature="0" /></clipPath><clipPath
       clipPathUnits="userSpaceOnUse"
       id="clipPath7532"><path
         d="m 0,7.92969 2574.77,0 0,1410.00001 -2574.77,0 L 0,7.92969 z"
         id="path7534"
         inkscape:connector-curvature="0" /></clipPath><clipPath
       clipPathUnits="userSpaceOnUse"
       id="clipPath7554"><path
         d="m 0,7 2575,0 0,1411 L 0,1418 0,7 z"
         id="path7556"
         inkscape:connector-curvature="0" /></clipPath><clipPath
       clipPathUnits="userSpaceOnUse"
       id="clipPath7570"><path
         d="m 0,7.92969 2574.77,0 0,1410.00001 -2574.77,0 L 0,7.92969 z"
         id="path7572"
         inkscape:connector-curvature="0" /></clipPath><clipPath
       clipPathUnits="userSpaceOnUse"
       id="clipPath7586"><path
         d="m 0,7 2575,0 0,1411 L 0,1418 0,7 z"
         id="path7588"
         inkscape:connector-curvature="0" /></clipPath><clipPath
       clipPathUnits="userSpaceOnUse"
       id="clipPath7612"><path
         d="m 0,7.92969 2574.77,0 0,1410.00001 -2574.77,0 L 0,7.92969 z"
         id="path7614"
         inkscape:connector-curvature="0" /></clipPath></defs><sodipodi:namedview
     pagecolor="#ffffff"
     bordercolor="#666666"
     borderopacity="1"
     objecttolerance="10"
     gridtolerance="10"
     guidetolerance="10"
     inkscape:pageopacity="0"
     inkscape:pageshadow="2"
     inkscape:window-width="1366"
     inkscape:window-height="702"
     id="namedview7312"
     showgrid="false"
     inkscape:zoom="3.3064094"
     inkscape:cx="189.67579"
     inkscape:cy="57.559424"
     inkscape:window-x="0"
     inkscape:window-y="27"
     inkscape:window-maximized="1"
     inkscape:current-layer="g7318"
     fit-margin-top="0"
     fit-margin-left="0"
     fit-margin-right="0"
     fit-margin-bottom="0" /><g
     id="g7318"
     inkscape:groupmode="layer"
     inkscape:label="ink_ext_XXXXXX"
     transform="matrix(1.25,0,0,-1.25,-12.548875,145.25)"><path
       id="path8522"
       class="fil0"
       d="m 11.617256,43.440928 c 0,-7.562745 16.256335,-13.711817 36.329441,-13.711817 20.037743,0 36.32944,6.149092 36.32944,13.711817 0,7.598044 -16.291697,13.747182 -36.32944,13.747182 -20.073106,0 -36.329441,-6.149149 -36.329441,-13.747182 z"
       inkscape:connector-curvature="0"
       style="fill:#f0f0f0;fill-opacity:1;fill-rule:evenodd;stroke:#686868;stroke-width:0.73367262;stroke-opacity:1" /><path
       id="path8524"
       class="fil1"
       d="m 48.123304,22.166398 c 0.388685,0 0.777476,0 1.166207,0 13.994626,0.247438 17.351879,16.008996 17.811292,21.769307 0.247388,2.897902 -3.145249,11.73281 -3.922717,13.323133 -0.671478,1.413555 -3.039251,4.276103 -4.311457,5.194921 -0.459414,0.318065 -1.413609,0.671493 -1.69634,0.883572 -1.413607,1.095512 -2.403122,2.297073 -2.897849,2.721155 -0.459412,0.459414 -2.403122,1.731641 -2.403122,1.731641 0,0 -0.424056,1.095564 -0.671496,1.484304 -0.318069,0.494779 -0.954202,1.625591 -1.342901,2.014331 -0.35343,0.388686 -1.095512,0.494778 -1.6963,0.494778 -0.636134,0 -1.342901,-0.106046 -1.731693,-0.494778 -0.388684,-0.388687 -1.024814,-1.519595 -1.342901,-2.014331 -0.247436,-0.388687 -0.671387,-1.484304 -0.671387,-1.484304 0,0 -1.94374,-1.272205 -2.403122,-1.731641 -0.494774,-0.424051 -1.484303,-1.625643 -2.897897,-2.721155 -0.282701,-0.212079 -1.236863,-0.565402 -1.696299,-0.883572 -1.272258,-0.918829 -3.640027,-3.781377 -4.311457,-5.194921 -0.777479,-1.590301 -4.170107,-10.425252 -3.922769,-13.323133 0.459418,-5.760353 3.81672,-21.521973 17.811396,-21.769307 0.388684,0 0.777476,0 1.130865,0 z"
       inkscape:connector-curvature="0"
       style="fill:#f8deb0;fill-rule:evenodd" /><path
       id="path8526"
       class="fil2"
       d="m 32.326386,32.379613 c 0.03527,0.03538 0.03527,0.106057 0.07064,0.141357 0,-0.07065 -0.03537,-0.106 -0.07064,-0.141357 z"
       inkscape:connector-curvature="0"
       style="fill:#948b7c;fill-rule:evenodd"
       sodipodi:nodetypes="ccc" /><path
       id="path8528"
       class="fil2"
       d="m 34.234772,31.319433 c -0.106045,-0.176708 -0.247439,-0.353429 -0.388682,-0.459419 0.106,0.176708 0.24744,0.318068 0.388682,0.459419 z"
       inkscape:connector-curvature="0"
       style="fill:#948b7c;fill-rule:evenodd"
       sodipodi:nodetypes="ccc" /><path
       id="path8530"
       class="fil5"
       d="m 46.603711,64.291408 c -0.212087,0 -6.82062,-0.530035 -9.153045,-2.332428 -0.883578,-0.671495 -2.049739,-2.226431 -2.367772,-3.145248 1.307559,1.448898 2.897849,2.403122 4.064069,3.003845 0.954197,0.494781 7.280013,2.120434 7.456748,2.191077 0.106,0.03537 0.176708,0.318067 0,0.282704 z"
       inkscape:connector-curvature="0"
       style="fill:#3c3c3c;fill-opacity:1;fill-rule:evenodd" /><path
       id="path8532"
       class="fil5"
       d="m 49.819612,64.362135 c 0.176709,0 6.82062,-0.565508 9.117694,-2.332469 0.883574,-0.671386 2.08508,-2.226376 2.403123,-3.145249 -1.30756,1.448952 -2.933204,2.403124 -4.099411,3.003898 -0.918819,0.494785 -7.280014,2.08508 -7.456705,2.191078 -0.106056,0.03538 -0.176708,0.318067 0.03528,0.282704 z"
       inkscape:connector-curvature="0"
       style="fill:#3c3c3c;fill-opacity:1;fill-rule:evenodd" /><g
       style="fill-rule:evenodd"
       id="g8534"
       transform="matrix(29.000805,0,0,-29.000805,43.926437,141.95452)"><path
         sodipodi:nodetypes="ccccccccccccc"
         style="fill:#3c3c3c;fill-opacity:1;fill-rule:evenodd"
         inkscape:connector-curvature="0"
         d="m 0.76834387,3.1147944 c 0.0122062,0.024409 0.0219695,0.053702 0.0292939,0.089097 0.006102,0.030512 0.0146451,0.078111 0.0183055,0.1379161 -0.77838004,0.2933632 -0.75654084,0.9025785 -1.27664892,0.39423 -0.11716908,-0.29292 -0.043939,-0.5565513 0.0549231,-0.7457275 0.11106493,-0.2135878 0.23677786,0.2502034 0.23677786,0.2502034 0,0 0.11350648,-0.21969 0.3698141,-0.3014639 0.16598943,-0.053702 0.34296288,0.05004 0.35638849,0.056144 -0.1110668,-0.00855 -0.1110668,-0.019531 -0.26607066,-0.00244 0.18917808,0.019527 0.36004922,-0.00366 0.45036778,0.084214 0.007325,0.00732 -0.19161968,-0.00366 -0.18551736,0.00488 0.006102,0.00732 0.20748687,0.024408 0.21236858,0.032954 z"
         class="fil3"
         id="path8536" /><g
         id="g8538"><path
           id="path8540"
           style="fill:#3c3c3c;fill-opacity:1;fill-rule:evenodd"
           d="M 0.81230188,3.3163323 C 0.82326828,3.4420453 0.8069481,3.618342 0.7117463,3.7928757 0.58725365,4.0211097 0.40051636,4.1663501 0.16495849,4.1663501 c -0.20016395,0 -0.40642875,-0.031733 -0.58218122,-0.3454029 -0.0219695,-0.037837 -0.0402784,-0.075671 -0.0549231,-0.1135079 0.69016521,0.033162 0.91739386,-0.6460022 1.27785885,-0.4378832 z"
           inkscape:connector-curvature="0"
           sodipodi:nodetypes="csscccc" /></g></g><path
       style="fill:none;stroke:#000000;stroke-width:0.58568215;stroke-linecap:butt;stroke-linejoin:miter;stroke-miterlimit:4;stroke-opacity:1;stroke-dasharray:none"
       d="m 32.087142,55.35628 c -1.526033,-3.305247 -2.838915,-6.520555 -3.257863,-10.219463 -0.475059,-4.923383 0.757867,-9.876075 3.201316,-14.141893 2.161533,-3.816349 5.267426,-7.446519 9.566112,-8.837898 3.085362,-1.067941 6.443967,-1.116621 9.660078,-0.778398 2.476785,0.36419 4.813748,1.364331 6.822602,2.85054 2.70959,2.026588 4.949076,4.676481 6.48706,7.692419 1.755895,2.993128 2.582598,6.480974 2.816476,9.923041 0.07589,1.05612 0.229988,1.96419 0.225182,3.177644 -0.0088,2.212955 -0.736648,4.44303 -1.258852,6.553385 -0.174476,0.299049 -0.568111,0.277262 -0.934981,0.308967 -0.308773,0.02668 -0.276351,0.505925 -0.325828,0.669738 -0.05996,0.198539 0.455149,0.04366 0.724684,0.01784 -0.31499,0.278295 -1.068459,0.743562 -1.130293,0.923236 -0.05083,0.147697 -0.163525,0.403275 -0.359191,0.869006 -0.652452,2.129045 -1.647024,4.143617 -3.133197,5.817734 -1.00978,1.177702 -2.104254,2.337924 -3.570633,2.936199 -1.777476,1.055093 -2.919626,2.929894 -4.717528,3.978797 -0.689805,0.36211 -1.266303,0.822503 -1.427223,1.62517 -0.486949,0.981306 -1.004989,2.09867 -1.902108,2.743215 -1.305535,0.709633 -3.20773,0.347414 -3.851447,-1.09508 -0.565323,-0.828325 -0.984633,-1.785165 -1.44909,-2.635651 -1.353366,-0.940013 -2.688949,-1.895885 -3.774178,-3.150061 -0.774222,-1.124055 -2.114253,-1.448277 -3.185036,-2.173541 -1.740423,-1.341523 -3.755575,-4.191515 -4.221263,-4.944884 -0.544977,-1.168133 -0.576095,-1.313502 -0.738405,-1.624387 -0.05754,-0.11021 -0.134751,-0.237969 -0.266394,-0.485678 z"
       id="path8542"
       inkscape:connector-curvature="0"
       sodipodi:nodetypes="ccccccccscsscscccccccccccsc" /><path
       inkscape:connector-curvature="0"
       id="path7340"
       style="fill:#a6cee3;fill-opacity:1;stroke:#a6cee3;stroke-width:0.86699998;stroke-linecap:butt;stroke-linejoin:bevel;stroke-miterlimit:10;stroke-opacity:1;stroke-dasharray:none"
       d="m 38.169128,38.583228 -3.516,-1.0621 1.266,3.4601 z M 52.543,54.1172 36.837128,39.204328 c -0.1129,-0.1012 -0.2848,-0.1012 -0.3867,0.016 -0.1051,0.1051 -0.0981,0.2808 0.0117,0.3859 L 52.1762,54.523 c 0.1047,0.0981 0.2769,0.0981 0.3828,-0.0152 0.1012,-0.1098 0.1012,-0.2808 -0.016,-0.3906 z"
       sodipodi:nodetypes="ccccccccccc" /><path
       inkscape:connector-curvature="0"
       id="path7354"
       style="fill:none;stroke:#8d8f93;stroke-width:1.301;stroke-linecap:round;stroke-linejoin:round;stroke-miterlimit:10;stroke-opacity:1;stroke-dasharray:none"
       d="M 38.7461,94.0391 C 38.7461,62.691 64.352,37.277 95.934,37.277"
       sodipodi:nodetypes="cc" /><path
       sodipodi:nodetypes="caaaaaacccccccaccccc"
       inkscape:connector-curvature="0"
       id="path8546"
       d="m 67.55462,41.563499 c 0.140947,-0.315389 0.57397,-1.008576 0.900479,-1.487453 0.134417,-0.197145 0.246007,-0.422632 0.434617,-0.568786 0.139172,-0.107844 0.310619,-0.19703 0.486468,-0.205772 0.188341,-0.0093 0.382874,0.06384 0.540316,0.167628 0.14611,0.09632 0.250745,0.249353 0.340606,0.399522 0.142646,0.238378 0.272648,0.500135 0.303332,0.776234 0.04234,0.380952 -0.05007,0.904823 -0.173166,1.136777 -0.202477,0.419724 -0.393685,0.660558 -0.607018,0.988666 -0.213667,0.410784 -0.165993,0.439612 -0.233682,0.79429 -0.08993,0.775559 -1.43e-4,1.341771 -0.01096,2.125569 -0.0057,0.242576 0.09088,0.788686 0.103505,1.118578 0.04064,0.406757 0.07389,0.893914 -0.06715,1.181803 -0.179993,0.254323 -0.291083,0.293102 -0.530507,0.469934 -0.209508,0.189061 -0.494041,0.207347 -0.739175,0.15116 -0.418717,-0.09597 -0.628477,-0.996047 -1.024095,-0.782333 0.158484,-1.180621 0.05527,-0.563553 0.229918,-1.740251 0.08581,-0.582871 0.10257,-1.316187 0.173461,-1.901437 0.02161,-1.10321 -0.288873,-1.548402 -0.243425,-2.650013 z"
       style="fill:#f8deb0;fill-opacity:1;fill-rule:evenodd;stroke:#000000;stroke-width:0.64354944;stroke-linecap:butt;stroke-linejoin:miter;stroke-miterlimit:4;stroke-opacity:1;stroke-dasharray:none" /><path
       inkscape:connector-curvature="0"
       id="path7376"
       style="fill:none;stroke:#8d8f93;stroke-width:1.301;stroke-linecap:round;stroke-linejoin:round;stroke-miterlimit:10;stroke-opacity:1;stroke-dasharray:none"
       d="M 11.473123,93.98394 C 11.473123,47.62384 49.4531,9.19883 96.152,9.19883"
       sodipodi:nodetypes="cc" /><path
       style="fill:#f8deb0;fill-opacity:1;fill-rule:evenodd;stroke:#000000;stroke-width:0.64354944;stroke-linecap:butt;stroke-linejoin:miter;stroke-miterlimit:4;stroke-opacity:1;stroke-dasharray:none"
       d="m 28.715584,41.568879 c -0.151958,-0.310234 -0.609106,-0.987754 -0.952263,-1.454845 -0.141272,-0.192292 -0.260728,-0.413713 -0.454364,-0.553139 -0.142881,-0.10288 -0.31736,-0.185977 -0.493408,-0.188525 -0.188554,-0.0027 -0.38039,0.07727 -0.534082,0.186537 -0.142631,0.101401 -0.241815,0.258022 -0.326336,0.41126 -0.13417,0.243251 -0.25488,0.509421 -0.275829,0.786428 -0.0289,0.382206 0.08188,0.9025 0.213062,1.129979 0.217122,0.41234 0.416685,0.646295 0.641433,0.966693 0.227989,0.40301 0.181359,0.433498 0.261489,0.785575 0.117165,0.771914 0.04736,1.340935 0.08575,2.123866 0.01423,0.242226 -0.06307,0.791397 -0.06408,1.121528 -0.0263,0.407936 -0.04238,0.895961 0.108699,1.178708 0.188832,0.247832 0.301217,0.282678 0.546716,0.450974 0.216031,0.181572 0.425703,0.204238 0.641095,0.158715 0.453383,-0.09582 0.695978,-1.051205 1.098872,-0.851546 -0.199932,-1.174312 -0.07507,-0.561259 -0.291016,-1.731082 -0.106265,-0.579491 -0.148822,-1.311762 -0.240264,-1.894156 -0.06042,-1.101765 0.118712,-1.527641 0.03453,-2.62697 z"
       id="path8544"
       inkscape:connector-curvature="0"
       sodipodi:nodetypes="caaaaaacccccccacccc" /><path
       inkscape:connector-curvature="0"
       id="path7390"
       style="fill:#ffffff;fill-opacity:1;stroke:#8d8f93;stroke-width:1.301;stroke-linecap:round;stroke-linejoin:round;stroke-miterlimit:10;stroke-opacity:1;stroke-dasharray:none"
       d="M 63.566031,93.883014 C 63.566031,75.754114 78.0121,61.6559 96.277,61.6559"
       sodipodi:nodetypes="cc" /><path
       inkscape:connector-curvature="0"
       id="path7396"
       style="fill:#ffffff;fill-opacity:1;fill-rule:evenodd;stroke:none"
       d="m 118.566,97.859 -14.289,15.805 -10.5071,-8.547 14.2771,-15.8041 10.519,8.5461" /><path
       inkscape:connector-curvature="0"
       id="path7398"
       style="fill:#ffffff;fill-opacity:1;fill-rule:evenodd;stroke:none"
       d="m 103.738,95.109 -4.3239,4.95 -19.777,-3.5 16.691,-19.125 7.4099,17.675" /><path
       inkscape:connector-curvature="0"
       id="path7400"
       style="fill:#ffffff;fill-opacity:1;fill-rule:evenodd;stroke:none"
       d="m 118.566,97.859 -14.289,15.805 -10.5071,-8.547 14.2771,-15.8041 10.519,8.5461" /><path
       inkscape:connector-curvature="0"
       id="path7402"
       style="fill:#ffffff;fill-opacity:1;fill-rule:evenodd;stroke:none"
       d="m 103.738,95.109 -4.3239,4.95 -19.777,-3.5 16.691,-19.125 7.4099,17.675" /><path
       inkscape:connector-curvature="0"
       id="path7408"
       style="fill:#ffffff;fill-opacity:1;fill-rule:nonzero;stroke:none"
       d="m 104.645,106.156 c -0.204,-0.176 -0.317,-0.359 -0.34,-0.551 -0.024,-0.187 0.027,-0.351 0.148,-0.492 0.125,-0.14 0.281,-0.211 0.473,-0.215 0.187,0 0.386,0.09 0.59,0.27 0.199,0.172 0.308,0.355 0.336,0.543 0.019,0.187 -0.028,0.355 -0.149,0.492 -0.125,0.141 -0.281,0.211 -0.473,0.215 -0.191,0 -0.386,-0.086 -0.585,-0.262 z m -0.457,0.574 c 0.179,0.157 0.39,0.266 0.636,0.325 0.242,0.058 0.481,0.043 0.707,-0.039 0.231,-0.086 0.434,-0.227 0.606,-0.426 0.269,-0.309 0.39,-0.645 0.363,-1.016 -0.027,-0.371 -0.195,-0.691 -0.5,-0.961 -0.305,-0.265 -0.648,-0.39 -1.023,-0.371 -0.375,0.024 -0.696,0.184 -0.957,0.485 -0.165,0.187 -0.278,0.402 -0.34,0.644 -0.067,0.242 -0.055,0.477 0.031,0.707 0.086,0.231 0.242,0.449 0.477,0.652" /><path
       inkscape:connector-curvature="0"
       id="path7410"
       style="fill:#ffffff;fill-opacity:1;fill-rule:nonzero;stroke:none"
       d="m 106.52,101.965 0.304,0.265 c -0.172,-0.019 -0.344,0 -0.512,0.067 -0.167,0.066 -0.308,0.168 -0.425,0.301 -0.121,0.136 -0.199,0.285 -0.235,0.445 -0.035,0.16 -0.019,0.312 0.047,0.457 0.067,0.141 0.196,0.297 0.387,0.465 l 1.285,1.125 0.469,-0.535 -0.934,-0.821 c -0.285,-0.25 -0.453,-0.41 -0.496,-0.488 -0.051,-0.074 -0.07,-0.156 -0.058,-0.242 0.007,-0.082 0.046,-0.168 0.117,-0.246 0.078,-0.09 0.176,-0.153 0.289,-0.184 0.117,-0.027 0.222,-0.019 0.32,0.02 0.098,0.035 0.293,0.183 0.582,0.437 l 0.856,0.75 0.472,-0.539 -2.031,-1.777 -0.437,0.5" /><path
       inkscape:connector-curvature="0"
       id="path7412"
       style="fill:#ffffff;fill-opacity:1;fill-rule:nonzero;stroke:none"
       d="m 109.062,99.0629 -0.472,0.5391 1.039,0.906 c 0.219,0.191 0.351,0.328 0.394,0.406 0.043,0.078 0.059,0.16 0.051,0.242 -0.008,0.086 -0.047,0.164 -0.109,0.235 -0.082,0.093 -0.18,0.156 -0.297,0.183 -0.113,0.031 -0.227,0.024 -0.336,-0.023 -0.105,-0.047 -0.273,-0.168 -0.5,-0.367 l -0.922,-0.805 -0.469,0.535 2.032,1.777 0.437,-0.5 -0.301,-0.257 c 0.387,0.023 0.696,-0.102 0.93,-0.368 0.106,-0.121 0.18,-0.246 0.223,-0.382 0.043,-0.137 0.054,-0.258 0.031,-0.368 -0.023,-0.109 -0.066,-0.207 -0.133,-0.3 -0.07,-0.094 -0.18,-0.211 -0.336,-0.348 l -1.262,-1.1051" /><path
       inkscape:connector-curvature="0"
       id="path7414"
       style="fill:#ffffff;fill-opacity:1;fill-rule:nonzero;stroke:none"
       d="m 110.973,99.016 c -0.215,-0.1879 -0.348,-0.3558 -0.391,-0.5 -0.066,-0.207 -0.027,-0.3949 0.109,-0.5469 0.106,-0.125 0.25,-0.1839 0.434,-0.18 0.18,0.0078 0.375,0.1019 0.586,0.2847 0.23,0.2032 0.363,0.3953 0.391,0.5672 0.031,0.175 -0.012,0.3281 -0.129,0.461 -0.11,0.125 -0.254,0.1871 -0.434,0.1832 -0.176,-0.0043 -0.363,-0.0942 -0.566,-0.2692 z m 0.199,-2.3601 -0.438,0.5 0.297,0.2582 c -0.187,-0.0161 -0.359,0.0039 -0.515,0.066 -0.157,0.0668 -0.286,0.157 -0.383,0.2699 -0.207,0.234 -0.285,0.516 -0.246,0.848 0.043,0.3282 0.234,0.6399 0.57,0.9372 0.344,0.3007 0.676,0.4488 0.996,0.4449 0.32,-0.0071 0.59,-0.1321 0.809,-0.3781 0.195,-0.227 0.273,-0.5079 0.23,-0.836 l 1.012,0.882 0.469,-0.5351 -2.801,-2.457" /><path
       inkscape:connector-curvature="0"
       id="path7416"
       style="fill:#ffffff;fill-opacity:1;fill-rule:nonzero;stroke:none"
       d="m 97.8711,106.078 0.5551,-0.469 c -0.0821,-0.113 -0.1211,-0.23 -0.1141,-0.347 0.0078,-0.117 0.0668,-0.239 0.1758,-0.364 0.1211,-0.14 0.2391,-0.222 0.3519,-0.25 0.0743,-0.015 0.1442,0.004 0.2071,0.055 0.039,0.035 0.0621,0.078 0.066,0.129 0,0.051 -0.027,0.129 -0.0859,0.242 -0.2848,0.516 -0.4372,0.867 -0.461,1.055 -0.0308,0.254 0.0512,0.469 0.2461,0.641 0.1758,0.152 0.3828,0.21 0.6258,0.179 0.2422,-0.035 0.4922,-0.199 0.7461,-0.488 0.242,-0.277 0.378,-0.523 0.406,-0.738 0.027,-0.215 -0.024,-0.426 -0.156,-0.633 l -0.5391,0.426 c 0.0621,0.089 0.0852,0.183 0.0742,0.281 -0.0121,0.098 -0.0632,0.203 -0.164,0.312 -0.1211,0.145 -0.2313,0.227 -0.325,0.254 -0.0621,0.02 -0.1172,0.004 -0.1641,-0.035 -0.0351,-0.031 -0.0539,-0.078 -0.05,-0.137 0.007,-0.082 0.1051,-0.293 0.2891,-0.636 0.1871,-0.34 0.2808,-0.61 0.289,-0.809 0,-0.195 -0.082,-0.367 -0.2543,-0.516 -0.1878,-0.164 -0.4136,-0.226 -0.6839,-0.187 -0.2688,0.039 -0.5387,0.207 -0.8039,0.516 -0.243,0.273 -0.379,0.543 -0.4071,0.8 -0.0308,0.262 0.0321,0.5 0.1762,0.719" /><path
       inkscape:connector-curvature="0"
       id="path7418"
       style="fill:#ffffff;fill-opacity:1;fill-rule:nonzero;stroke:none"
       d="m 100.758,103.664 c -0.203,-0.176 -0.317,-0.355 -0.34,-0.547 -0.023,-0.187 0.027,-0.355 0.148,-0.496 0.125,-0.137 0.282,-0.207 0.473,-0.211 0.188,0 0.387,0.086 0.59,0.266 0.199,0.176 0.309,0.355 0.332,0.547 0.023,0.187 -0.023,0.351 -0.145,0.492 -0.125,0.14 -0.281,0.211 -0.472,0.215 -0.192,0 -0.387,-0.086 -0.586,-0.266 z m -0.457,0.578 c 0.179,0.156 0.39,0.266 0.633,0.321 0.246,0.058 0.48,0.046 0.711,-0.04 0.23,-0.082 0.433,-0.222 0.605,-0.421 0.27,-0.309 0.391,-0.649 0.363,-1.02 -0.031,-0.371 -0.195,-0.687 -0.5,-0.953 -0.304,-0.27 -0.648,-0.395 -1.023,-0.375 -0.375,0.023 -0.695,0.184 -0.957,0.484 -0.1639,0.188 -0.2779,0.403 -0.3439,0.645 -0.0621,0.242 -0.0512,0.476 0.0347,0.707 0.0864,0.23 0.2462,0.449 0.4772,0.652" /><path
       inkscape:connector-curvature="0"
       id="path7420"
       style="fill:#ffffff;fill-opacity:1;fill-rule:nonzero;stroke:none"
       d="m 102.633,99.477 0.305,0.2652 c -0.176,-0.0231 -0.344,0 -0.512,0.0668 -0.168,0.066 -0.313,0.164 -0.43,0.296 -0.117,0.137 -0.195,0.29 -0.23,0.45 -0.036,0.16 -0.02,0.312 0.046,0.457 0.067,0.14 0.196,0.297 0.387,0.465 l 1.285,1.125 0.469,-0.536 -0.933,-0.82 c -0.286,-0.25 -0.45,-0.414 -0.5,-0.488 -0.047,-0.074 -0.067,-0.156 -0.055,-0.242 0.008,-0.086 0.047,-0.168 0.113,-0.246 0.082,-0.094 0.18,-0.153 0.293,-0.184 0.113,-0.027 0.223,-0.023 0.32,0.016 0.098,0.039 0.293,0.183 0.582,0.437 l 0.856,0.754 0.473,-0.539 -2.032,-1.777 -0.437,0.5" /><path
       inkscape:connector-curvature="0"
       id="path7422"
       style="fill:#ffffff;fill-opacity:1;fill-rule:nonzero;stroke:none"
       d="m 104.008,97.9059 -0.469,0.5351 2.027,1.782 0.438,-0.5 -0.289,-0.2539 c 0.211,0.0348 0.371,0.0348 0.473,0.0079 0.101,-0.0321 0.191,-0.0899 0.265,-0.1758 0.109,-0.125 0.18,-0.2703 0.211,-0.4461 l -0.613,-0.2422 c -0.02,0.1449 -0.067,0.25 -0.133,0.3281 -0.066,0.0789 -0.145,0.1219 -0.23,0.141 -0.086,0.016 -0.2,-0.0121 -0.333,-0.0742 -0.136,-0.0668 -0.375,-0.25 -0.718,-0.5508 l -0.629,-0.5511" /><path
       inkscape:connector-curvature="0"
       id="path7424"
       style="fill:#ffffff;fill-opacity:1;fill-rule:nonzero;stroke:none"
       d="m 107.871,96.3789 -0.559,0.4449 c 0.09,0.1141 0.137,0.2231 0.133,0.3321 0,0.1101 -0.047,0.2152 -0.133,0.3171 -0.117,0.1321 -0.257,0.1989 -0.421,0.1989 -0.161,-0.0039 -0.352,-0.0981 -0.567,-0.2891 -0.242,-0.2109 -0.375,-0.3988 -0.402,-0.5668 -0.031,-0.168 0.016,-0.3199 0.133,-0.457 0.09,-0.1012 0.191,-0.1602 0.308,-0.175 0.114,-0.0121 0.254,0.0269 0.418,0.125 l 0.375,-0.6059 c -0.293,-0.1562 -0.566,-0.2152 -0.828,-0.1679 -0.258,0.0507 -0.504,0.2027 -0.73,0.4648 -0.262,0.2969 -0.375,0.6129 -0.344,0.957 0.035,0.3399 0.215,0.6559 0.547,0.945 0.336,0.2929 0.676,0.4339 1.015,0.4179 0.344,-0.0109 0.645,-0.1679 0.911,-0.4719 0.218,-0.246 0.335,-0.489 0.355,-0.7269 0.023,-0.2383 -0.047,-0.4883 -0.211,-0.7422" /><path
       inkscape:connector-curvature="0"
       id="path7426"
       style="fill:#ffffff;fill-opacity:1;fill-rule:nonzero;stroke:none"
       d="m 109.047,94.5551 c 0.152,0.1359 0.234,0.2847 0.246,0.4289 0.016,0.1488 -0.027,0.2781 -0.121,0.3871 -0.102,0.1168 -0.231,0.1758 -0.383,0.1801 -0.152,0 -0.301,-0.0672 -0.445,-0.1961 l 0.703,-0.8 z m -0.57,-0.4461 0.378,-0.6129 c -0.257,-0.1012 -0.503,-0.125 -0.734,-0.066 -0.234,0.0578 -0.445,0.1988 -0.644,0.4219 -0.309,0.3511 -0.422,0.714 -0.34,1.0859 0.066,0.2961 0.242,0.566 0.523,0.816 0.336,0.293 0.68,0.434 1.024,0.4262 0.343,-0.0082 0.632,-0.1492 0.871,-0.418 0.265,-0.3012 0.371,-0.625 0.328,-0.9769 -0.051,-0.3473 -0.281,-0.6993 -0.699,-1.0512 l -1.18,1.3441 c -0.156,-0.1402 -0.242,-0.2972 -0.258,-0.457 -0.016,-0.1563 0.031,-0.3012 0.141,-0.4262 0.07,-0.082 0.156,-0.132 0.254,-0.148 0.093,-0.0199 0.207,0.0043 0.336,0.0621" /><path
       inkscape:connector-curvature="0"
       id="path7428"
       style="fill:#ffffff;fill-opacity:1;fill-rule:nonzero;stroke:none"
       d="m 84.9531,96.457 0.2617,-0.3011 0.1524,0.1371 c 0.1719,0.148 0.3129,0.2422 0.4297,0.2769 0.1172,0.0391 0.2422,0.0321 0.3832,-0.0187 C 86.316,96.5 86.4488,96.398 86.582,96.25 c 0.1328,-0.152 0.2418,-0.3199 0.3239,-0.5078 L 86.4691,95.484 c -0.055,0.1058 -0.1171,0.1961 -0.1882,0.2738 -0.0661,0.0781 -0.1329,0.1211 -0.1989,0.1211 -0.066,0 -0.1519,-0.043 -0.2539,-0.1328 l -0.1441,-0.125 0.3512,-0.402 -0.4223,-0.3711 -0.3508,0.402 -1.6062,-1.4059 -0.4719,0.5348 1.6051,1.4102 -0.2582,0.2968 0.4222,0.3711" /><path
       inkscape:connector-curvature="0"
       id="path7430"
       style="fill:#ffffff;fill-opacity:1;fill-rule:nonzero;stroke:none"
       d="m 87.141,90.5078 -0.8519,2.6524 0.4648,0.4058 2.516,-1.191 -0.5469,-0.477 -1.6839,0.8911 0.641,-1.809 -0.5391,-0.4723" /><path
       inkscape:connector-curvature="0"
       id="path7432"
       style="fill:#ffffff;fill-opacity:1;fill-rule:nonzero;stroke:none"
       d="m 90.168,87.4141 -0.5,-0.4371 -1.6481,1.882 c 0.2031,0.1449 0.4371,0.243 0.6949,0.2859 0.2582,0.0461 0.6602,0.043 1.2032,-0.0121 0.4371,-0.0469 0.7191,-0.0629 0.848,-0.0469 0.175,0.0231 0.316,0.0821 0.425,0.1801 0.1211,0.1012 0.184,0.218 0.1918,0.336 0.0082,0.121 -0.0387,0.2378 -0.1367,0.3511 -0.0981,0.1129 -0.2109,0.1719 -0.3359,0.1797 -0.125,0.0082 -0.2692,-0.0547 -0.4372,-0.1797 l -0.414,0.5821 c 0.3238,0.2269 0.6211,0.3128 0.898,0.2578 0.277,-0.0551 0.5231,-0.211 0.7461,-0.461 0.2418,-0.2769 0.359,-0.559 0.3481,-0.848 -0.0121,-0.2891 -0.1293,-0.5309 -0.3481,-0.7262 -0.1293,-0.1098 -0.2652,-0.1918 -0.4222,-0.2457 -0.152,-0.0551 -0.336,-0.0902 -0.5469,-0.1019 -0.136,-0.0082 -0.359,0.0078 -0.6641,0.0386 -0.3039,0.0352 -0.5,0.0512 -0.5898,0.0512 -0.093,0 -0.175,-0.0039 -0.2461,-0.0199 l 0.934,-1.066" /><path
       inkscape:connector-curvature="0"
       id="path7434"
       style="fill:#ffffff;fill-opacity:1;fill-rule:nonzero;stroke:none"
       d="m 90.0699,86.5199 2.8012,2.4531 0.473,-0.5351 -1.489,-1.3051 1.266,-0.0039 0.582,-0.6598 -1.3511,0.0469 -0.6372,-1.875 -0.5078,0.5781 0.4649,1.3079 -0.4809,0.0242 -0.6519,-0.5711 -0.4692,0.5398" /><path
       inkscape:connector-curvature="0"
       id="path7436"
       style="fill:#ffffff;fill-opacity:1;fill-rule:nonzero;stroke:none"
       d="m 92,84.316 2.8012,2.4539 0.4957,-0.5668 -1.102,-0.9652 0.9692,-1.109 1.1058,0.9691 0.4961,-0.571 -2.8051,-2.4532 -0.4961,0.5672 1.2262,1.0738 -0.968,1.109 L 92.4961,83.75 92,84.316" /><path
       inkscape:connector-curvature="0"
       id="path7438"
       style="fill:#ffffff;fill-opacity:1;fill-rule:nonzero;stroke:none"
       d="m 94.2809,81.7109 0.4179,0.3672 1.5434,0.0039 c 0.25,0 0.434,-0.0039 0.5469,-0.0121 -0.059,0.059 -0.1332,0.141 -0.227,0.2391 l -0.6281,0.714 0.4449,0.3911 1.4691,-1.6801 -0.3789,-0.332 -1.5781,-0.0071 -0.5359,0.011 c 0.141,-0.1399 0.2269,-0.2258 0.2578,-0.2649 l 0.7312,-0.8281 -0.473,-0.4149 -1.5902,1.8129" /><path
       style="fill:#f0f0f0;fill-opacity:1;fill-rule:evenodd;stroke:#686868;stroke-width:0.73367262;stroke-opacity:1"
       inkscape:connector-curvature="0"
       d="m 149.75172,43.809201 c 0,-7.562745 16.25634,-13.711817 36.32944,-13.711817 20.03775,0 36.32944,6.149092 36.32944,13.711817 0,7.598044 -16.29169,13.747182 -36.32944,13.747182 -20.0731,0 -36.32944,-6.149149 -36.32944,-13.747182 z"
       class="fil0"
       id="path8494" /><path
       inkscape:connector-curvature="0"
       id="path7502"
       style="fill:none;stroke:#8d8f93;stroke-width:1.301;stroke-linecap:round;stroke-linejoin:round;stroke-miterlimit:10;stroke-opacity:1;stroke-dasharray:none"
       d="M 177.00802,93.965169 C 177.00802,62.617969 202.734,37.566 234.312,37.566"
       sodipodi:nodetypes="cc" /><path
       inkscape:connector-curvature="0"
       id="path7508"
       style="fill:none;stroke:#8d8f93;stroke-width:1.301;stroke-linecap:round;stroke-linejoin:round;stroke-miterlimit:10;stroke-opacity:1;stroke-dasharray:none"
       d="m 149.36811,94.147763 c 0,-46.3559 38.46789,-84.663783 85.16289,-84.663783"
       sodipodi:nodetypes="cc" /><path
       inkscape:connector-curvature="0"
       id="path7514"
       style="fill:none;stroke:#8d8f93;stroke-width:1.301;stroke-linecap:round;stroke-linejoin:round;stroke-miterlimit:10;stroke-opacity:1;stroke-dasharray:none"
       d="m 163.637,94.077886 c 0,-38.371 31.34,-70.085686 69.992,-70.085686"
       sodipodi:nodetypes="cc" /><path
       style="fill:none;stroke:#babbbc;stroke-width:1.296;stroke-linecap:round;stroke-linejoin:round;stroke-miterlimit:10;stroke-opacity:1;stroke-dasharray:none"
       d="m 219.051,50.707 c 0.24301,2.602197 -0.034,5.241871 -0.68528,7.753327 -0.7028,2.710324 -1.93322,5.299462 -3.41962,7.672309 -1.3806,2.203947 -3.1077,4.211407 -5.02594,5.967481 -1.75554,1.60713 -3.72957,3.010511 -5.84532,4.100644 -2.08584,1.074725 -4.35641,1.793478 -6.63684,2.346139 -1.94412,0.471157 -3.97174,0.46334 -5.946,0.8121 m 35.52,-27.6129 c 0.29632,2.992674 -0.008,6.024054 -0.74665,8.91221 -0.81757,3.19625 -2.26761,6.247413 -4.01103,9.048294 -1.55504,2.498237 -3.50568,4.770745 -5.66195,6.773201 -1.99428,1.852022 -4.23813,3.468586 -6.63408,4.759539 -2.1939,1.182089 -4.57323,2.032988 -6.98088,2.676224 -2.21084,0.590655 -4.5207,0.714198 -6.78173,1.066947 -0.44914,0.07007 -0.89845,0.13899 -1.34768,0.208485 M 211.523,48.5 c 0.18598,2.131842 -0.0264,4.298711 -0.57147,6.354353 -0.60411,2.278519 -1.6674,4.447283 -2.93929,6.431946 -1.20995,1.888015 -2.6977,3.626633 -4.39124,5.096501 -1.60092,1.389483 -3.40597,2.595802 -5.35394,3.431887 -2.11477,0.90768 -4.44689,1.201478 -6.70475,1.646714 -0.81886,0.161474 -1.65159,0.242129 -2.47631,0.370599"
       id="path7520"
       inkscape:connector-curvature="0"
       sodipodi:nodetypes="caaaaaccaaaaaaccaaaaac" /><path
       inkscape:connector-curvature="0"
       id="path7522"
       style="fill:none;stroke:#8d8f93;stroke-width:1.301;stroke-linecap:round;stroke-linejoin:round;stroke-miterlimit:10;stroke-opacity:1;stroke-dasharray:none"
       d="m 190.027,93.906937 c 0,-24.0629 19.657,-42.844037 43.891,-42.844037"
       sodipodi:nodetypes="cc" /><path
       inkscape:connector-curvature="0"
       id="path7560"
       style="fill:none;stroke:#8d8f93;stroke-width:1.301;stroke-linecap:round;stroke-linejoin:round;stroke-miterlimit:10;stroke-opacity:1;stroke-dasharray:none"
       d="m 201.582,93.93016 c 0,-18.1321 14.813,-31.98526 33.074,-31.98526"
       sodipodi:nodetypes="cc" /><path
       style="fill:#f8deb0;fill-rule:evenodd"
       inkscape:connector-curvature="0"
       d="m 186.25777,22.534671 c 0.38869,0 0.77748,0 1.16621,0 13.99462,0.247438 17.35188,16.008996 17.81129,21.769307 0.24739,2.897902 -3.14525,11.73281 -3.92272,13.323133 -0.67147,1.413555 -3.03925,4.276103 -4.31145,5.194921 -0.45942,0.318065 -1.41361,0.671493 -1.69634,0.883572 -1.41361,1.095512 -2.40313,2.297073 -2.89785,2.721155 -0.45942,0.459414 -2.40313,1.731641 -2.40313,1.731641 0,0 -0.42405,1.095564 -0.67149,1.484304 -0.31807,0.494779 -0.9542,1.625591 -1.3429,2.014331 -0.35343,0.388686 -1.09551,0.494778 -1.6963,0.494778 -0.63614,0 -1.3429,-0.106046 -1.73169,-0.494778 -0.38869,-0.388687 -1.02482,-1.519595 -1.34291,-2.014331 -0.24743,-0.388687 -0.67138,-1.484304 -0.67138,-1.484304 0,0 -1.94374,-1.272205 -2.40313,-1.731641 -0.49477,-0.424051 -1.4843,-1.625643 -2.89789,-2.721155 -0.2827,-0.212079 -1.23687,-0.565402 -1.6963,-0.883572 -1.27226,-0.918829 -3.64003,-3.781377 -4.31146,-5.194921 -0.77748,-1.590301 -4.17011,-10.425252 -3.92277,-13.323133 0.45942,-5.760353 3.81672,-21.521973 17.8114,-21.769307 0.38868,0 0.77748,0 1.13086,0 z"
       class="fil1"
       id="path8496" /><path
       sodipodi:nodetypes="ccc"
       style="fill:#948b7c;fill-rule:evenodd"
       inkscape:connector-curvature="0"
       d="m 170.46085,32.747886 c 0.0353,0.03538 0.0353,0.106057 0.0706,0.141357 0,-0.07065 -0.0354,-0.106 -0.0706,-0.141357 z"
       class="fil2"
       id="path8498" /><path
       sodipodi:nodetypes="ccc"
       style="fill:#948b7c;fill-rule:evenodd"
       inkscape:connector-curvature="0"
       d="m 172.36924,31.687706 c -0.10605,-0.176708 -0.24744,-0.353429 -0.38868,-0.459419 0.106,0.176708 0.24744,0.318068 0.38868,0.459419 z"
       class="fil2"
       id="path8500" /><path
       style="fill:#3c3c3c;fill-opacity:1;fill-rule:evenodd"
       inkscape:connector-curvature="0"
       d="m 184.73818,64.659681 c -0.21209,0 -6.82062,-0.530035 -9.15305,-2.332428 -0.88357,-0.671495 -2.04974,-2.226431 -2.36777,-3.145248 1.30756,1.448898 2.89785,2.403122 4.06407,3.003845 0.9542,0.494781 7.28001,2.120434 7.45675,2.191077 0.106,0.03537 0.17671,0.318067 0,0.282704 z"
       class="fil5"
       id="path8502" /><path
       style="fill:#3c3c3c;fill-opacity:1;fill-rule:evenodd"
       inkscape:connector-curvature="0"
       d="m 187.95408,64.730408 c 0.17671,0 6.82062,-0.565508 9.11769,-2.332469 0.88358,-0.671386 2.08508,-2.226376 2.40313,-3.145249 -1.30756,1.448952 -2.93321,2.403124 -4.09941,3.003898 -0.91882,0.494785 -7.28002,2.08508 -7.45671,2.191078 -0.10606,0.03538 -0.17671,0.318067 0.0353,0.282704 z"
       class="fil5"
       id="path8504" /><g
       style="fill-rule:evenodd"
       transform="matrix(29.000805,0,0,-29.000805,182.0609,142.32278)"
       id="g8506"><path
         id="path8508"
         class="fil3"
         d="m 0.76834387,3.1147944 c 0.0122062,0.024409 0.0219695,0.053702 0.0292939,0.089097 0.006102,0.030512 0.0146451,0.078111 0.0183055,0.1379161 -0.77838004,0.2933632 -0.75654084,0.9025785 -1.27664892,0.39423 -0.11716908,-0.29292 -0.043939,-0.5565513 0.0549231,-0.7457275 0.11106493,-0.2135878 0.23677786,0.2502034 0.23677786,0.2502034 0,0 0.11350648,-0.21969 0.3698141,-0.3014639 0.16598943,-0.053702 0.34296288,0.05004 0.35638849,0.056144 -0.1110668,-0.00855 -0.1110668,-0.019531 -0.26607066,-0.00244 0.18917808,0.019527 0.36004922,-0.00366 0.45036778,0.084214 0.007325,0.00732 -0.19161968,-0.00366 -0.18551736,0.00488 0.006102,0.00732 0.20748687,0.024408 0.21236858,0.032954 z"
         inkscape:connector-curvature="0"
         style="fill:#3c3c3c;fill-opacity:1;fill-rule:evenodd"
         sodipodi:nodetypes="ccccccccccccc" /><g
         id="g8510"><path
           sodipodi:nodetypes="csscccc"
           inkscape:connector-curvature="0"
           d="M 0.81230188,3.3163323 C 0.82326828,3.4420453 0.8069481,3.618342 0.7117463,3.7928757 0.58725365,4.0211097 0.40051636,4.1663501 0.16495849,4.1663501 c -0.20016395,0 -0.40642875,-0.031733 -0.58218122,-0.3454029 -0.0219695,-0.037837 -0.0402784,-0.075671 -0.0549231,-0.1135079 0.69016521,0.033162 0.91739386,-0.6460022 1.27785885,-0.4378832 z"
           style="fill:#3c3c3c;fill-opacity:1;fill-rule:evenodd"
           id="path8512" /></g></g><path
       inkscape:connector-curvature="0"
       id="path7590"
       style="fill:none;stroke:#8d8f93;stroke-width:1.301;stroke-linecap:round;stroke-linejoin:round;stroke-miterlimit:10;stroke-opacity:1;stroke-dasharray:1.735, 3.47;stroke-dashoffset:0"
       d="M 177.00802,93.965168 C 177.00802,62.617968 202.734,37.566 234.312,37.566"
       sodipodi:nodetypes="cc" /><path
       inkscape:connector-curvature="0"
       id="path7596"
       style="fill:none;stroke:#8d8f93;stroke-width:1.301;stroke-linecap:round;stroke-linejoin:round;stroke-miterlimit:10;stroke-opacity:1;stroke-dasharray:1.735, 3.47;stroke-dashoffset:0"
       d="m 149.36812,94.026786 c 0,-46.3559 38.46788,-84.542806 85.16288,-84.542806"
       sodipodi:nodetypes="cc" /><path
       inkscape:connector-curvature="0"
       id="path7602"
       style="fill:none;stroke:#8d8f93;stroke-width:1.301;stroke-linecap:round;stroke-linejoin:round;stroke-miterlimit:10;stroke-opacity:1;stroke-dasharray:1.735, 3.47;stroke-dashoffset:0"
       d="m 163.637,94.077886 c 0,-38.371 31.34,-70.085686 69.992,-70.085686"
       sodipodi:nodetypes="cc" /><path
       inkscape:connector-curvature="0"
       id="path7574"
       style="fill:none;stroke:#a6cee3;stroke-width:1.73500001;stroke-linecap:butt;stroke-linejoin:miter;stroke-miterlimit:4;stroke-opacity:1;stroke-dasharray:none"
       d="m 205.9549,7.9998183 -39.464,0.01601" /><path
       inkscape:connector-curvature="0"
       id="path7576"
       style="fill:none;stroke:#a6cee3;stroke-width:0.86699998;stroke-linecap:round;stroke-linejoin:miter;stroke-miterlimit:4;stroke-opacity:1;stroke-dasharray:none"
       d="M 166.8299,41.046364 166.6229,7.9998183 M 205.8689,41.7521 205.6619,7.9998183"
       sodipodi:nodetypes="cccc" /><path
       style="fill:#f8deb0;fill-opacity:1;fill-rule:evenodd;stroke:#000000;stroke-width:0.64354944;stroke-linecap:butt;stroke-linejoin:miter;stroke-miterlimit:4;stroke-opacity:1;stroke-dasharray:none"
       d="m 205.68909,41.931772 c 0.14094,-0.315389 0.57397,-1.008576 0.90048,-1.487453 0.13441,-0.197145 0.246,-0.422632 0.43461,-0.568786 0.13917,-0.107844 0.31062,-0.19703 0.48647,-0.205772 0.18834,-0.0093 0.38287,0.06384 0.54032,0.167628 0.14611,0.09632 0.25074,0.249353 0.3406,0.399522 0.14265,0.238378 0.27265,0.500135 0.30334,0.776234 0.0423,0.380952 -0.0501,0.904823 -0.17317,1.136777 -0.20248,0.419724 -0.39369,0.660558 -0.60702,0.988666 -0.21367,0.410784 -0.16599,0.439612 -0.23368,0.79429 -0.0899,0.775559 -1.4e-4,1.341771 -0.011,2.125569 -0.006,0.242576 0.0909,0.788686 0.1035,1.118578 0.0406,0.406757 0.0739,0.893914 -0.0671,1.181803 -0.17999,0.254323 -0.29108,0.293102 -0.53051,0.469934 -0.2095,0.189061 -0.55341,0.04843 -0.81219,-0.03183 -0.3579,-0.111004 -0.55546,-0.813062 -0.95108,-0.599348 0.15849,-1.180621 0.0553,-0.563553 0.22992,-1.740251 0.0858,-0.582871 0.10257,-1.316187 0.17346,-1.901437 0.0216,-1.10321 -0.28887,-1.548402 -0.24342,-2.650013 z"
       id="path8518"
       inkscape:connector-curvature="0"
       sodipodi:nodetypes="caaaaaacccccccaccccc" /><path
       sodipodi:nodetypes="caaaaaacccccccaccccc"
       inkscape:connector-curvature="0"
       id="path8516"
       d="m 166.85005,41.937152 c -0.15196,-0.310234 -0.6091,-0.987754 -0.95226,-1.454845 -0.14127,-0.192292 -0.26073,-0.413713 -0.45437,-0.553139 -0.14288,-0.10288 -0.31736,-0.185977 -0.4934,-0.188525 -0.18856,-0.0027 -0.38039,0.07727 -0.53409,0.186537 -0.14263,0.101401 -0.24181,0.258022 -0.32633,0.41126 -0.13417,0.243251 -0.25488,0.509421 -0.27583,0.786428 -0.0289,0.382206 0.0819,0.9025 0.21306,1.129979 0.21712,0.41234 0.41669,0.646295 0.64143,0.966693 0.22799,0.40301 0.18136,0.433498 0.26149,0.785575 0.11717,0.771914 0.0474,1.340935 0.0857,2.123866 0.0142,0.242226 -0.0631,0.791397 -0.0641,1.121528 -0.0263,0.407936 -0.0424,0.895961 0.1087,1.178708 0.18883,0.247832 0.30122,0.282678 0.54672,0.450974 0.21603,0.181572 0.4257,0.204238 0.6411,0.158715 0.45338,-0.09582 0.69597,-1.051205 1.09887,-0.851546 -0.19994,-1.174312 -0.0751,-0.561259 -0.29102,-1.731082 -0.10626,-0.579491 -0.14882,-1.311762 -0.24026,-1.894156 -0.0604,-1.101765 0.11871,-1.527641 0.0345,-2.62697 z"
       style="fill:#f8deb0;fill-opacity:1;fill-rule:evenodd;stroke:#000000;stroke-width:0.64354944;stroke-linecap:butt;stroke-linejoin:miter;stroke-miterlimit:4;stroke-opacity:1;stroke-dasharray:none" /><path
       sodipodi:nodetypes="ccccccccscsscscccccccccccsc"
       inkscape:connector-curvature="0"
       id="path8514"
       d="m 170.22161,55.724553 c -1.52603,-3.305247 -2.83892,-6.520555 -3.25786,-10.219463 -0.47506,-4.923383 0.75786,-9.876075 3.20131,-14.141893 2.16154,-3.816349 5.26743,-7.446519 9.56611,-8.837898 3.08537,-1.067941 6.44397,-1.116621 9.66008,-0.778398 2.47679,0.36419 4.81375,1.364331 6.8226,2.85054 2.70959,2.026588 4.94908,4.676481 6.48706,7.692419 1.7559,2.993128 2.5826,6.480974 2.81648,9.923041 0.0759,1.05612 0.22999,1.96419 0.22518,3.177644 -0.009,2.212955 -0.73665,4.44303 -1.25885,6.553385 -0.17448,0.299049 -0.56811,0.277262 -0.93498,0.308967 -0.30877,0.02668 -0.27635,0.505925 -0.32583,0.669738 -0.06,0.198539 0.45515,0.04366 0.72469,0.01784 -0.31499,0.278295 -1.06846,0.743562 -1.1303,0.923236 -0.0508,0.147697 -0.16352,0.403275 -0.35919,0.869006 -0.65245,2.129045 -1.64702,4.143617 -3.1332,5.817734 -1.00978,1.177702 -2.10425,2.337924 -3.57063,2.936199 -1.77747,1.055093 -2.91962,2.929894 -4.71753,3.978797 -0.6898,0.36211 -1.2663,0.822503 -1.42722,1.62517 -0.48695,0.981306 -1.00499,2.09867 -1.90211,2.743215 -1.30553,0.709633 -3.20773,0.347414 -3.85144,-1.09508 -0.56533,-0.828325 -0.98464,-1.785165 -1.44909,-2.635651 -1.35337,-0.940013 -2.68895,-1.895885 -3.77418,-3.150061 -0.77423,-1.124055 -2.11426,-1.448277 -3.18504,-2.173541 -1.74042,-1.341523 -3.75557,-4.191515 -4.22126,-4.944884 -0.54498,-1.168133 -0.5761,-1.313502 -0.73841,-1.624387 -0.0575,-0.11021 -0.13475,-0.237969 -0.26639,-0.485678 z"
       style="fill:none;stroke:#000000;stroke-width:0.58568215;stroke-linecap:butt;stroke-linejoin:miter;stroke-miterlimit:4;stroke-opacity:1;stroke-dasharray:none" /><path
       transform="matrix(0.8,0,0,-0.8,-24.323932,170.17282)"
       d="m 162.41183,95.235535 c 0,6.681385 -5.41633,12.097715 -12.09771,12.097715 -6.68139,0 -12.09772,-5.41633 -12.09772,-12.097715 0,-6.681384 5.41633,-12.097716 12.09772,-12.097716 6.68138,0 12.09771,5.416332 12.09771,12.097716 z"
       sodipodi:ry="12.097715"
       sodipodi:rx="12.097715"
       sodipodi:cy="95.235535"
       sodipodi:cx="150.31412"
       id="path11253"
       style="fill:#8d8f93;fill-opacity:1;fill-rule:nonzero;stroke:none"
       sodipodi:type="arc" /><path
       sodipodi:type="arc"
       style="fill:#8d8f93;fill-opacity:1;fill-rule:nonzero;stroke:none"
       id="path11251"
       sodipodi:cx="150.31412"
       sodipodi:cy="95.235535"
       sodipodi:rx="12.097715"
       sodipodi:ry="12.097715"
       d="m 162.41183,95.235535 c 0,6.681385 -5.41633,12.097715 -12.09771,12.097715 -6.68139,0 -12.09772,-5.41633 -12.09772,-12.097715 0,-6.681384 5.41633,-12.097716 12.09772,-12.097716 6.68138,0 12.09771,5.416332 12.09771,12.097716 z"
       transform="matrix(0.8,0,0,-0.8,112.29753,169.90411)" /></g></svg>